<svg xmlns="http://www.w3.org/2000/svg" width="92" height="92" viewBox="0 0 92 92">
  <g id="Group_54" data-name="Group 54" transform="translate(-670 -127)">
    <circle id="Ellipse_105" data-name="Ellipse 105" cx="3.5" cy="3.5" r="3.5" transform="translate(670 127)" fill="#f4f4f4"/>
    <circle id="Ellipse_105-2" data-name="Ellipse 105" cx="3.5" cy="3.5" r="3.5" transform="translate(684 127)" fill="#f4f4f4"/>
    <circle id="Ellipse_105-3" data-name="Ellipse 105" cx="3.5" cy="3.5" r="3.5" transform="translate(698 127)" fill="#f4f4f4"/>
    <circle id="Ellipse_105-4" data-name="Ellipse 105" cx="3.5" cy="3.5" r="3.5" transform="translate(712 127)" fill="#f4f4f4"/>
    <ellipse id="Ellipse_105-5" data-name="Ellipse 105" cx="3" cy="3.5" rx="3" ry="3.5" transform="translate(727 127)" fill="#f4f4f4"/>
    <circle id="Ellipse_105-6" data-name="Ellipse 105" cx="3.5" cy="3.5" r="3.5" transform="translate(741 127)" fill="#f4f4f4"/>
    <circle id="Ellipse_105-7" data-name="Ellipse 105" cx="3.5" cy="3.5" r="3.5" transform="translate(755 127)" fill="#f4f4f4"/>
    <circle id="Ellipse_105-8" data-name="Ellipse 105" cx="3.5" cy="3.5" r="3.5" transform="translate(670 141)" fill="#f4f4f4"/>
    <circle id="Ellipse_105-9" data-name="Ellipse 105" cx="3.5" cy="3.5" r="3.5" transform="translate(684 141)" fill="#f4f4f4"/>
    <circle id="Ellipse_105-10" data-name="Ellipse 105" cx="3.5" cy="3.5" r="3.5" transform="translate(698 141)" fill="#f4f4f4"/>
    <circle id="Ellipse_105-11" data-name="Ellipse 105" cx="3.5" cy="3.5" r="3.5" transform="translate(712 141)" fill="#f4f4f4"/>
    <ellipse id="Ellipse_105-12" data-name="Ellipse 105" cx="3" cy="3.5" rx="3" ry="3.5" transform="translate(727 141)" fill="#f4f4f4"/>
    <circle id="Ellipse_105-13" data-name="Ellipse 105" cx="3.5" cy="3.5" r="3.5" transform="translate(741 141)" fill="#f4f4f4"/>
    <circle id="Ellipse_105-14" data-name="Ellipse 105" cx="3.5" cy="3.5" r="3.5" transform="translate(755 141)" fill="#f4f4f4"/>
    <circle id="Ellipse_105-15" data-name="Ellipse 105" cx="3.5" cy="3.5" r="3.5" transform="translate(670 155)" fill="#f4f4f4"/>
    <circle id="Ellipse_105-16" data-name="Ellipse 105" cx="3.5" cy="3.5" r="3.5" transform="translate(684 155)" fill="#f4f4f4"/>
    <circle id="Ellipse_105-17" data-name="Ellipse 105" cx="3.5" cy="3.5" r="3.5" transform="translate(698 155)" fill="#f4f4f4"/>
    <circle id="Ellipse_105-18" data-name="Ellipse 105" cx="3.5" cy="3.5" r="3.5" transform="translate(712 155)" fill="#f4f4f4"/>
    <ellipse id="Ellipse_105-19" data-name="Ellipse 105" cx="3" cy="3.5" rx="3" ry="3.5" transform="translate(727 155)" fill="#f4f4f4"/>
    <circle id="Ellipse_105-20" data-name="Ellipse 105" cx="3.5" cy="3.5" r="3.5" transform="translate(741 155)" fill="#f4f4f4"/>
    <circle id="Ellipse_105-21" data-name="Ellipse 105" cx="3.5" cy="3.5" r="3.5" transform="translate(755 155)" fill="#f4f4f4"/>
    <circle id="Ellipse_105-22" data-name="Ellipse 105" cx="3.5" cy="3.5" r="3.5" transform="translate(670 169)" fill="#f4f4f4"/>
    <circle id="Ellipse_105-23" data-name="Ellipse 105" cx="3.5" cy="3.5" r="3.5" transform="translate(684 169)" fill="#f4f4f4"/>
    <circle id="Ellipse_105-24" data-name="Ellipse 105" cx="3.5" cy="3.5" r="3.5" transform="translate(698 169)" fill="#f4f4f4"/>
    <circle id="Ellipse_105-25" data-name="Ellipse 105" cx="3.5" cy="3.5" r="3.5" transform="translate(712 169)" fill="#f4f4f4"/>
    <ellipse id="Ellipse_105-26" data-name="Ellipse 105" cx="3" cy="3.5" rx="3" ry="3.5" transform="translate(727 169)" fill="#f4f4f4"/>
    <circle id="Ellipse_105-27" data-name="Ellipse 105" cx="3.5" cy="3.5" r="3.5" transform="translate(741 169)" fill="#f4f4f4"/>
    <circle id="Ellipse_105-28" data-name="Ellipse 105" cx="3.5" cy="3.5" r="3.5" transform="translate(755 169)" fill="#f4f4f4"/>
    <ellipse id="Ellipse_105-29" data-name="Ellipse 105" cx="3.5" cy="3" rx="3.5" ry="3" transform="translate(670 184)" fill="#f4f4f4"/>
    <ellipse id="Ellipse_105-30" data-name="Ellipse 105" cx="3.5" cy="3" rx="3.5" ry="3" transform="translate(684 184)" fill="#f4f4f4"/>
    <ellipse id="Ellipse_105-31" data-name="Ellipse 105" cx="3.5" cy="3" rx="3.5" ry="3" transform="translate(698 184)" fill="#f4f4f4"/>
    <ellipse id="Ellipse_105-32" data-name="Ellipse 105" cx="3.5" cy="3" rx="3.5" ry="3" transform="translate(712 184)" fill="#f4f4f4"/>
    <circle id="Ellipse_105-33" data-name="Ellipse 105" cx="3.5" cy="3.5" r="3.5" transform="translate(670 198)" fill="#f4f4f4"/>
    <circle id="Ellipse_105-34" data-name="Ellipse 105" cx="3.5" cy="3.5" r="3.5" transform="translate(684 198)" fill="#f4f4f4"/>
    <circle id="Ellipse_105-35" data-name="Ellipse 105" cx="3.5" cy="3.5" r="3.5" transform="translate(698 198)" fill="#f4f4f4"/>
    <circle id="Ellipse_105-36" data-name="Ellipse 105" cx="3.5" cy="3.5" r="3.5" transform="translate(712 198)" fill="#f4f4f4"/>
    <circle id="Ellipse_105-37" data-name="Ellipse 105" cx="3.5" cy="3.5" r="3.5" transform="translate(670 212)" fill="#f4f4f4"/>
    <circle id="Ellipse_105-38" data-name="Ellipse 105" cx="3.5" cy="3.5" r="3.5" transform="translate(684 212)" fill="#f4f4f4"/>
    <circle id="Ellipse_105-39" data-name="Ellipse 105" cx="3.5" cy="3.5" r="3.5" transform="translate(698 212)" fill="#f4f4f4"/>
    <circle id="Ellipse_105-40" data-name="Ellipse 105" cx="3.5" cy="3.5" r="3.5" transform="translate(712 212)" fill="#f4f4f4"/>
  </g>
</svg>
