<svg id="Group_49" data-name="Group 49" xmlns="http://www.w3.org/2000/svg" width="33.419" height="32.8" viewBox="0 0 33.419 32.8">
  <rect id="Rectangle_97" data-name="Rectangle 97" width="35.27" height="7.581" transform="translate(26.498 31.804) rotate(-135)" fill="#5ecbb5"/>
  <path id="Union_28" data-name="Union 28" d="M26.053,1.785a13.64,13.64,0,0,1-1.848,1.5,13.537,13.537,0,0,1-2.3,1.25A13.475,13.475,0,0,1,16.624,5.6a13.477,13.477,0,0,1-5.278-1.066,13.549,13.549,0,0,1-2.3-1.25A13.67,13.67,0,0,1,7.58,2.143,4.023,4.023,0,1,0,1.322,7L1.3,7.02l.018.019.15.152A21.586,21.586,0,0,0,4.645,9.808a21.444,21.444,0,0,0,3.639,1.975,21.326,21.326,0,0,0,4.022,1.248,21.59,21.59,0,0,0,4.318.435,21.6,21.6,0,0,0,4.318-.435,21.281,21.281,0,0,0,4.022-1.248A21.469,21.469,0,0,0,28.6,9.808a21.581,21.581,0,0,0,2.921-2.371,4.023,4.023,0,1,0-5.471-5.652Z" transform="translate(0 0)" fill="#4f4cdb"/>
  <path id="Union_27" data-name="Union 27" d="M12.306.435A21.306,21.306,0,0,0,4.645,3.659a21.623,21.623,0,0,0-2.414,1.9A4.023,4.023,0,1,0,6.864,12l0,0c.058-.06.109-.112.168-.171a13.672,13.672,0,0,1,2.007-1.656,13.543,13.543,0,0,1,15.162,0,13.672,13.672,0,0,1,2.007,1.656c.06.06.127.128.2.208l.09-.09a4.023,4.023,0,1,0,4.347-6.549,21.428,21.428,0,0,0-5.888-3.723A21.365,21.365,0,0,0,20.942.435a21.64,21.64,0,0,0-8.636,0Z" transform="translate(0 19.62)" fill="#4f4cdb"/>
</svg>
