<svg xmlns="http://www.w3.org/2000/svg" width="395.561" height="57.513" viewBox="0 0 395.561 57.513"><g transform="translate(-180 -202)"><g transform="translate(180 202)"><rect width="61.844" height="13.294" transform="translate(46.462 55.766) rotate(-135)" fill="#fff" opacity="0.6"/><path d="M45.682,3.13a23.916,23.916,0,0,1-3.239,2.628A23.736,23.736,0,0,1,38.4,7.951a23.627,23.627,0,0,1-9.255,1.869,23.631,23.631,0,0,1-9.254-1.869,23.758,23.758,0,0,1-4.039-2.192,23.969,23.969,0,0,1-2.565-2A7.054,7.054,0,1,0,2.317,12.28l-.029.029.032.033.264.266A37.85,37.85,0,0,0,8.144,17.2a37.6,37.6,0,0,0,6.381,3.463,37.393,37.393,0,0,0,7.052,2.189,37.857,37.857,0,0,0,7.571.763,37.872,37.872,0,0,0,7.572-.763,37.314,37.314,0,0,0,7.051-2.189A37.645,37.645,0,0,0,50.154,17.2a37.841,37.841,0,0,0,5.121-4.157,7.054,7.054,0,1,0-9.594-9.91Z" transform="translate(0 0)" fill="#fff"/><path d="M21.578.763A37.358,37.358,0,0,0,8.144,6.416,37.915,37.915,0,0,0,3.91,9.741,7.054,7.054,0,1,0,12.036,21.05l.007.007c.1-.1.192-.2.294-.3a23.973,23.973,0,0,1,3.519-2.9,23.747,23.747,0,0,1,26.585,0,23.972,23.972,0,0,1,3.519,2.9c.106.106.223.225.356.364l.159-.159A7.054,7.054,0,1,0,54.1,9.48,37.572,37.572,0,0,0,43.773,2.952,37.461,37.461,0,0,0,36.721.763a37.943,37.943,0,0,0-15.143,0Z" transform="translate(0 34.402)" fill="#fff"/></g><path d="M4.57-43.125H35.186v7.588H13.535v9.932H32.49v7.5H13.535V0H4.57ZM49.072,0h-8.35V-43.184h8.35ZM69.814-25.9a5.671,5.671,0,0,0-4.5,1.816,9.066,9.066,0,0,0-2.007,4.922H76.289a7.268,7.268,0,0,0-2.007-5.024A6.232,6.232,0,0,0,69.814-25.9Zm0-6.885a16.736,16.736,0,0,1,7.178,1.494,12.574,12.574,0,0,1,5.273,4.717A16.093,16.093,0,0,1,84.7-19.98a42.571,42.571,0,0,1,.264,6.328H63.105q.176,4.8,3.018,6.738a7.107,7.107,0,0,0,4.16,1.2,5.987,5.987,0,0,0,4.189-1.465,6.957,6.957,0,0,0,1.553-2.2h8.525A10.592,10.592,0,0,1,81.592-3.6q-4.1,4.658-11.484,4.658A16.194,16.194,0,0,1,59.355-2.871Q54.7-6.8,54.7-15.645q0-8.291,4.2-12.715A14.375,14.375,0,0,1,69.814-32.783ZM87.451,0l10.9-16.172-10.43-15.7H98.145l5.332,9.258,5.215-9.258h9.932L108.135-16.318,119.033,0h-10.4l-5.508-9.58L97.588,0Zm53.76-32.637a11.828,11.828,0,0,1,9.858,4.541q3.56,4.541,3.56,11.719,0,7.441-3.516,12.334A11.4,11.4,0,0,1,141.3.85a11.394,11.394,0,0,1-6.357-1.582,12.7,12.7,0,0,1-3.105-3.281V0h-8.174V-43.125h8.32v15.352a12.182,12.182,0,0,1,3.486-3.4A10.355,10.355,0,0,1,141.211-32.637Zm-2.139,26.6a5.731,5.731,0,0,0,5.01-2.607,11.905,11.905,0,0,0,1.787-6.855,15.454,15.454,0,0,0-.879-5.625,6.122,6.122,0,0,0-6.152-4.219,6.212,6.212,0,0,0-6.24,4.131,15.5,15.5,0,0,0-.879,5.684,11.906,11.906,0,0,0,1.816,6.8A6.22,6.22,0,0,0,139.072-6.035Zm35.859.146A6.618,6.618,0,0,0,180.557-8.5q1.963-2.607,1.963-7.412t-1.963-7.4a6.632,6.632,0,0,0-5.625-2.593,6.672,6.672,0,0,0-5.64,2.593q-1.978,2.593-1.978,7.4T169.292-8.5A6.657,6.657,0,0,0,174.932-5.889Zm16.348-10.02a18.512,18.512,0,0,1-4.043,12.026q-4.043,5-12.275,5t-12.275-5a18.512,18.512,0,0,1-4.043-12.026,18.635,18.635,0,0,1,4.043-11.982q4.043-5.068,12.275-5.068t12.275,5.068A18.635,18.635,0,0,1,191.279-15.908ZM194.121,0l10.9-16.172-10.43-15.7h10.225l5.332,9.258,5.215-9.258h9.932L214.8-16.318,225.7,0H215.3l-5.508-9.58L204.258,0Zm53.848-43.184h9.17v26.543a14.989,14.989,0,0,0,1.055,6.5Q259.834-6.5,265.342-6.5q5.479,0,7.119-3.633a14.989,14.989,0,0,0,1.055-6.5V-43.184h9.17v26.543q0,6.885-2.139,10.723-3.984,7.031-15.205,7.031T250.107-5.918q-2.139-3.838-2.139-10.723ZM299.561,0H290.6V-43.184h8.965Z" transform="translate(276 251)" fill="#fff"/></g></svg>