<svg xmlns="http://www.w3.org/2000/svg" width="258.632" height="523.35" viewBox="0 0 258.632 523.35"><g transform="translate(-4923.03 -1009.13)"><g transform="translate(4923.03 1009.13)" fill="none" stroke="#fff" stroke-width="2"><rect width="258.632" height="523.35" rx="30" stroke="none"/><rect x="1" y="1" width="256.632" height="521.35" rx="29" fill="none"/></g><g transform="translate(4937.483 1022.822)" fill="none" stroke="#fff" stroke-width="1"><rect width="229.726" height="289.966" rx="20" stroke="none"/><rect x="0.5" y="0.5" width="228.726" height="288.966" rx="19.5" fill="none"/></g><g transform="translate(4950.483 1189.822)" fill="rgba(255,255,255,0.2)" stroke="#fff" stroke-width="1"><rect width="205.726" height="108.966" rx="10" stroke="none"/><rect x="0.5" y="0.5" width="204.726" height="107.966" rx="9.5" fill="none"/></g><g transform="translate(5082.483 1200.822)" fill="rgba(255,255,255,0.3)" stroke="#fff" stroke-width="1"><rect width="63.726" height="85.966" rx="8" stroke="none"/><rect x="0.5" y="0.5" width="62.726" height="84.966" rx="7.5" fill="none"/></g><g transform="translate(4937.483 1326.822)" fill="none" stroke="#fff" stroke-width="1"><rect width="229.726" height="191.966" rx="20" stroke="none"/><rect x="0.5" y="0.5" width="228.726" height="190.966" rx="19.5" fill="none"/></g><path d="M1.328-1.689A1.111,1.111,0,0,0,1.89-.684,1.244,1.244,0,0,0,2.5-.537a1.361,1.361,0,0,0,1.074-.525A4.319,4.319,0,0,0,4.2-3.193a1.629,1.629,0,0,1-.725.652,2.306,2.306,0,0,1-.93.188,2.082,2.082,0,0,1-1.6-.63A2.28,2.28,0,0,1,.356-4.6,2.6,2.6,0,0,1,.938-6.279,2.069,2.069,0,0,1,2.651-7,2.108,2.108,0,0,1,4.761-5.625,4.854,4.854,0,0,1,5.083-3.73,6.243,6.243,0,0,1,4.7-1.455,2.232,2.232,0,0,1,2.529.2,2.1,2.1,0,0,1,.972-.342,1.837,1.837,0,0,1,.439-1.689ZM2.661-3.125a1.5,1.5,0,0,0,.955-.344,1.458,1.458,0,0,0,.432-1.2,1.54,1.54,0,0,0-.388-1.15A1.358,1.358,0,0,0,2.671-6.2a1.291,1.291,0,0,0-1.023.432A1.69,1.69,0,0,0,1.27-4.614,1.656,1.656,0,0,0,1.6-3.528,1.3,1.3,0,0,0,2.661-3.125ZM6.67-5.161H7.69V-4.1H6.67Zm0,4.1H7.69V0H6.67Zm4.976-1.411V-5.645L9.4-2.476ZM11.66,0V-1.709H8.594v-.859l3.2-4.443h.742v4.536h1.03v.767h-1.03V0Zm3.2-4.951v-.674a3.58,3.58,0,0,0,1.328-.31,1.528,1.528,0,0,0,.562-1.028h.693V0H16.5V-4.951Z" transform="translate(4955 1045)" fill="#fff"/><g transform="translate(5139 1039)" fill="none"><path d="M1,6A1,1,0,0,1,0,5V1A1,1,0,0,1,1,0h9.25a1,1,0,0,1,1,1V2.25H12v1.5h-.75V5a1,1,0,0,1-1,1Z" stroke="none"/><path d="M 10.25010013580322 5.700299739837646 C 10.63603019714355 5.700299739837646 10.94999980926514 5.38592004776001 10.94999980926514 4.999499797821045 L 10.94999980926514 3.75029993057251 L 10.94999980926514 3.450299978256226 L 11.25 3.450299978256226 L 11.69970035552979 3.450299978256226 L 11.69970035552979 2.549999952316284 L 11.25 2.549999952316284 L 10.94999980926514 2.549999952316284 L 10.94999980926514 2.25 L 10.94999980926514 0.9998999834060669 C 10.94999980926514 0.6139699816703796 10.63603019714355 0.2999999523162842 10.25010013580322 0.2999999523162842 L 0.9999002814292908 0.2999999523162842 C 0.6139702796936035 0.2999999523162842 0.3000002801418304 0.6139699816703796 0.3000002801418304 0.9998999834060669 L 0.3000002801418304 4.999499797821045 C 0.3000002801418304 5.38592004776001 0.6139702796936035 5.700299739837646 0.9999002814292908 5.700299739837646 L 10.25010013580322 5.700299739837646 M 10.25010013580322 6.00029993057251 L 0.9999002814292908 6.00029993057251 C 0.4473002851009369 6.00029993057251 2.731323149873788e-07 5.55210018157959 2.731323149873788e-07 4.999499797821045 L 2.731323149873788e-07 0.9998999834060669 C 2.731323149873788e-07 0.4472999572753906 0.4473002851009369 -3.471374654395731e-08 0.9999002814292908 -3.471374654395731e-08 L 10.25010013580322 -3.471374654395731e-08 C 10.80180072784424 -3.471374654395731e-08 11.25 0.4472999572753906 11.25 0.9998999834060669 L 11.25 2.25 L 11.99970054626465 2.25 L 11.99970054626465 3.75029993057251 L 11.25 3.75029993057251 L 11.25 4.999499797821045 C 11.25 5.55210018157959 10.80180072784424 6.00029993057251 10.25010013580322 6.00029993057251 Z" stroke="none" fill="#fff"/></g><rect width="8" height="4" rx="0.5" transform="translate(5140 1040)" fill="#fff"/><rect width="1" height="6" transform="translate(5129 1039)" fill="#fff"/><rect width="1" height="5" transform="translate(5127 1040)" fill="#fff"/><rect width="1" height="4" transform="translate(5125 1041)" fill="#fff"/><rect width="1" height="3" transform="translate(5123 1042)" fill="#fff"/><path d="M-8-1.852a1.568,1.568,0,0,0,.23.793,1.528,1.528,0,0,0,1.363.57,2.413,2.413,0,0,0,.8-.125.885.885,0,0,0,.7-.867.749.749,0,0,0-.293-.668,2.958,2.958,0,0,0-.93-.34l-.777-.176a3.52,3.52,0,0,1-1.078-.379,1.2,1.2,0,0,1-.547-1.074A1.654,1.654,0,0,1-8-5.387a2.147,2.147,0,0,1,1.516-.5,2.632,2.632,0,0,1,1.533.436,1.572,1.572,0,0,1,.631,1.393h-.73a1.438,1.438,0,0,0-.25-.707,1.452,1.452,0,0,0-1.207-.449,1.4,1.4,0,0,0-.988.289.9.9,0,0,0-.3.672.656.656,0,0,0,.352.617,5.159,5.159,0,0,0,1.043.313l.8.184a2.465,2.465,0,0,1,.9.363,1.36,1.36,0,0,1,.547,1.168A1.458,1.458,0,0,1-4.85-.242a3.105,3.105,0,0,1-1.611.41A2.41,2.41,0,0,1-8.137-.379,1.845,1.845,0,0,1-8.73-1.852ZM-1.652-4.3A1.824,1.824,0,0,1-.5-3.961,1.647,1.647,0,0,1,.031-2.777H-.652A1.262,1.262,0,0,0-.937-3.42a.9.9,0,0,0-.715-.256.988.988,0,0,0-.961.656A2.607,2.607,0,0,0-2.8-1.969,1.977,1.977,0,0,0-2.535-.91.911.911,0,0,0-1.7-.48a.914.914,0,0,0,.693-.268A1.471,1.471,0,0,0-.652-1.48H.031A1.835,1.835,0,0,1-.555-.264a1.828,1.828,0,0,1-1.2.385,1.6,1.6,0,0,1-1.309-.6,2.3,2.3,0,0,1-.488-1.5,2.524,2.524,0,0,1,.535-1.715A1.729,1.729,0,0,1-1.652-4.3ZM1.273-1.113a.579.579,0,0,0,.223.48.826.826,0,0,0,.527.176,1.6,1.6,0,0,0,.719-.172.967.967,0,0,0,.586-.934v-.566A1.2,1.2,0,0,1,3-1.992a2.829,2.829,0,0,1-.4.078l-.426.055A1.628,1.628,0,0,0,1.6-1.7.624.624,0,0,0,1.273-1.113Zm1.7-1.422a.382.382,0,0,0,.324-.2.618.618,0,0,0,.047-.27.571.571,0,0,0-.256-.521,1.373,1.373,0,0,0-.732-.162.931.931,0,0,0-.781.3.977.977,0,0,0-.168.488H.754a1.208,1.208,0,0,1,.5-1.076,2.061,2.061,0,0,1,1.119-.3A2.277,2.277,0,0,1,3.574-4a.954.954,0,0,1,.457.875v2.41a.309.309,0,0,0,.045.176.217.217,0,0,0,.189.066q.047,0,.105-.006T4.5-.5V.02a1.958,1.958,0,0,1-.25.059A1.827,1.827,0,0,1,4.012.09a.578.578,0,0,1-.527-.258,1,1,0,0,1-.121-.387,1.789,1.789,0,0,1-.617.488,1.909,1.909,0,0,1-.887.207A1.319,1.319,0,0,1,.908-.213,1.174,1.174,0,0,1,.539-1.1,1.14,1.14,0,0,1,.9-2a1.728,1.728,0,0,1,.953-.395ZM5.184-4.184h.668v.594a1.874,1.874,0,0,1,.629-.527,1.677,1.677,0,0,1,.738-.16,1.217,1.217,0,0,1,1.2.621,2.205,2.205,0,0,1,.172.973V0H7.879V-2.637a1.428,1.428,0,0,0-.113-.617.687.687,0,0,0-.68-.391,1.384,1.384,0,0,0-.41.051,1.056,1.056,0,0,0-.508.344,1.035,1.035,0,0,0-.229.428,2.879,2.879,0,0,0-.053.631V0h-.7Z" transform="translate(4968 1149)" fill="#fff"/><g transform="translate(4952 1102)" fill="rgba(255,255,255,0.2)" stroke="#fff" stroke-width="1"><rect width="31" height="31" rx="5" stroke="none"/><rect x="0.5" y="0.5" width="30" height="30" rx="4.5" fill="none"/></g><path d="M5.981-7.173v.854H3.564V0H2.578V-6.318H.161v-.854Zm.43,1.943h.835v.9a2,2,0,0,1,.5-.642,1.3,1.3,0,0,1,.923-.378l.083,0,.2.02v.928a1.313,1.313,0,0,0-.144-.02q-.066,0-.144,0a1.254,1.254,0,0,0-1.021.427,1.491,1.491,0,0,0-.356.984V0H6.411Zm3.979,3.838a.724.724,0,0,0,.278.6,1.032,1.032,0,0,0,.659.22,2,2,0,0,0,.9-.215,1.209,1.209,0,0,0,.732-1.167v-.708a1.5,1.5,0,0,1-.415.171,3.537,3.537,0,0,1-.5.1l-.532.068a2.036,2.036,0,0,0-.718.2A.78.78,0,0,0,10.391-1.392ZM12.52-3.169a.477.477,0,0,0,.405-.254.773.773,0,0,0,.059-.337.714.714,0,0,0-.32-.652,1.716,1.716,0,0,0-.916-.2,1.163,1.163,0,0,0-.977.371,1.221,1.221,0,0,0-.21.61h-.82a1.51,1.51,0,0,1,.627-1.345,2.576,2.576,0,0,1,1.4-.378,2.846,2.846,0,0,1,1.5.352,1.193,1.193,0,0,1,.571,1.094V-.9a.386.386,0,0,0,.056.22.271.271,0,0,0,.237.083q.059,0,.132-.007t.156-.022V.024A2.448,2.448,0,0,1,14.106.1a2.284,2.284,0,0,1-.293.015.723.723,0,0,1-.659-.322A1.244,1.244,0,0,1,13-.693a2.236,2.236,0,0,1-.771.61,2.386,2.386,0,0,1-1.108.259A1.648,1.648,0,0,1,9.934-.266a1.468,1.468,0,0,1-.461-1.106A1.424,1.424,0,0,1,9.927-2.5a2.161,2.161,0,0,1,1.191-.493Zm2.759-2.061h.835v.742a2.342,2.342,0,0,1,.786-.659,2.1,2.1,0,0,1,.923-.2,1.522,1.522,0,0,1,1.5.776,2.757,2.757,0,0,1,.215,1.216V0h-.894V-3.3a1.785,1.785,0,0,0-.142-.771.858.858,0,0,0-.85-.488,1.73,1.73,0,0,0-.513.063,1.32,1.32,0,0,0-.635.43,1.294,1.294,0,0,0-.286.535,3.6,3.6,0,0,0-.066.789V0h-.879Zm6.084,3.589a1.278,1.278,0,0,0,.22.674,1.381,1.381,0,0,0,1.152.425,1.7,1.7,0,0,0,.859-.212.705.705,0,0,0,.371-.657.562.562,0,0,0-.3-.513,3.541,3.541,0,0,0-.752-.249l-.7-.176a3.406,3.406,0,0,1-.986-.371,1.109,1.109,0,0,1-.566-.986,1.507,1.507,0,0,1,.535-1.2,2.133,2.133,0,0,1,1.438-.459,2,2,0,0,1,1.7.693,1.5,1.5,0,0,1,.317.947h-.83a1.017,1.017,0,0,0-.21-.542,1.339,1.339,0,0,0-1.05-.347,1.255,1.255,0,0,0-.754.19.6.6,0,0,0-.256.5.619.619,0,0,0,.337.547,2.025,2.025,0,0,0,.576.215l.581.142a4.493,4.493,0,0,1,1.27.444,1.177,1.177,0,0,1,.513,1.06A1.615,1.615,0,0,1,24.3-.308,2.255,2.255,0,0,1,22.69.2a2.165,2.165,0,0,1-1.653-.53,2,2,0,0,1-.52-1.311Zm4.7-4.385a1.567,1.567,0,0,1,.19-.8,1.346,1.346,0,0,1,1.187-.449q.083,0,.171,0t.2.015v.8l-.2-.012-.115,0q-.4,0-.479.208a4.1,4.1,0,0,0-.078,1.057h.869v.693h-.879V0H26.06V-4.512h-.728v-.693h.728Zm4.736.679a2.385,2.385,0,0,1,1.079.261,1.99,1.99,0,0,1,.8.676,2.333,2.333,0,0,1,.352.923A6.038,6.038,0,0,1,33.1-2.334H29.268a2.237,2.237,0,0,0,.376,1.277,1.259,1.259,0,0,0,1.089.481,1.408,1.408,0,0,0,1.1-.454,1.531,1.531,0,0,0,.332-.61h.864A1.82,1.82,0,0,1,32.8-1a2.284,2.284,0,0,1-.432.579,2.048,2.048,0,0,1-.991.527,3.011,3.011,0,0,1-.718.078A2.2,2.2,0,0,1,29-.525a2.764,2.764,0,0,1-.679-1.99,3.006,3.006,0,0,1,.684-2.046A2.255,2.255,0,0,1,30.8-5.347Zm1.4,2.314a2.277,2.277,0,0,0-.249-.913,1.276,1.276,0,0,0-1.206-.635,1.337,1.337,0,0,0-1.016.437,1.651,1.651,0,0,0-.435,1.111Zm2.007-2.2h.835v.9a2,2,0,0,1,.5-.642,1.3,1.3,0,0,1,.923-.378l.083,0,.2.02v.928a1.313,1.313,0,0,0-.144-.02q-.066,0-.144,0a1.254,1.254,0,0,0-1.021.427,1.491,1.491,0,0,0-.356.984V0H34.2Zm6.26-1.46h.889v1.46h.835v.718h-.835V-1.1a.369.369,0,0,0,.186.366.789.789,0,0,0,.342.054l.137,0q.073,0,.171-.012V0a1.962,1.962,0,0,1-.315.063,2.994,2.994,0,0,1-.354.02.954.954,0,0,1-.835-.315,1.4,1.4,0,0,1-.22-.818V-4.512h-.708v-.718h.708ZM45.142-.566a1.212,1.212,0,0,0,1.2-.662A3.3,3.3,0,0,0,46.665-2.7a2.621,2.621,0,0,0-.234-1.191,1.318,1.318,0,0,0-1.279-.723A1.262,1.262,0,0,0,43.979-4a2.852,2.852,0,0,0-.366,1.484,2.481,2.481,0,0,0,.366,1.392A1.29,1.29,0,0,0,45.142-.566Zm.034-4.814a2.368,2.368,0,0,1,1.709.674,2.631,2.631,0,0,1,.7,1.982,3.4,3.4,0,0,1-.615,2.09A2.226,2.226,0,0,1,45.059.19a2.155,2.155,0,0,1-1.714-.73A2.883,2.883,0,0,1,42.71-2.5a3.119,3.119,0,0,1,.669-2.1A2.245,2.245,0,0,1,45.176-5.381Zm9.482,2.441L53.569-6.108,52.412-2.939Zm-1.6-4.233h1.1L56.763,0H55.7l-.728-2.148H52.134L51.357,0h-1Zm4.468,1.943h.835v.742a2.342,2.342,0,0,1,.786-.659,2.1,2.1,0,0,1,.923-.2,1.522,1.522,0,0,1,1.5.776,2.757,2.757,0,0,1,.215,1.216V0H60.9V-3.3a1.785,1.785,0,0,0-.142-.771.858.858,0,0,0-.85-.488,1.73,1.73,0,0,0-.513.063,1.32,1.32,0,0,0-.635.43,1.294,1.294,0,0,0-.286.535,3.6,3.6,0,0,0-.066.789V0h-.879Zm5.562,0h.835v.742a2.342,2.342,0,0,1,.786-.659,2.1,2.1,0,0,1,.923-.2,1.522,1.522,0,0,1,1.5.776,2.757,2.757,0,0,1,.215,1.216V0H66.46V-3.3a1.785,1.785,0,0,0-.142-.771.858.858,0,0,0-.85-.488,1.73,1.73,0,0,0-.513.063,1.32,1.32,0,0,0-.635.43,1.294,1.294,0,0,0-.286.535,3.6,3.6,0,0,0-.066.789V0h-.879Zm6.235,3.838a.724.724,0,0,0,.278.6,1.032,1.032,0,0,0,.659.22,2,2,0,0,0,.9-.215,1.209,1.209,0,0,0,.732-1.167v-.708a1.5,1.5,0,0,1-.415.171,3.537,3.537,0,0,1-.5.1l-.532.068a2.036,2.036,0,0,0-.718.2A.78.78,0,0,0,69.326-1.392Zm2.129-1.777a.477.477,0,0,0,.405-.254.773.773,0,0,0,.059-.337.714.714,0,0,0-.32-.652,1.716,1.716,0,0,0-.916-.2,1.163,1.163,0,0,0-.977.371,1.221,1.221,0,0,0-.21.61h-.82A1.51,1.51,0,0,1,69.3-4.978a2.576,2.576,0,0,1,1.4-.378A2.846,2.846,0,0,1,72.2-5a1.193,1.193,0,0,1,.571,1.094V-.9a.386.386,0,0,0,.056.22.271.271,0,0,0,.237.083q.059,0,.132-.007t.156-.022V.024A2.448,2.448,0,0,1,73.042.1a2.284,2.284,0,0,1-.293.015A.723.723,0,0,1,72.09-.21a1.244,1.244,0,0,1-.151-.483,2.236,2.236,0,0,1-.771.61,2.386,2.386,0,0,1-1.108.259A1.648,1.648,0,0,1,68.87-.266a1.468,1.468,0,0,1-.461-1.106A1.424,1.424,0,0,1,68.862-2.5a2.161,2.161,0,0,1,1.191-.493Z" transform="translate(4987 1383)" fill="#fff"/><path d="M2.822-5.347A2.385,2.385,0,0,1,3.9-5.085a1.99,1.99,0,0,1,.8.676,2.333,2.333,0,0,1,.352.923,6.038,6.038,0,0,1,.078,1.152H1.294A2.237,2.237,0,0,0,1.67-1.057a1.259,1.259,0,0,0,1.089.481,1.408,1.408,0,0,0,1.1-.454,1.531,1.531,0,0,0,.332-.61h.864A1.82,1.82,0,0,1,4.827-1a2.284,2.284,0,0,1-.432.579A2.048,2.048,0,0,1,3.4.107a3.011,3.011,0,0,1-.718.078A2.2,2.2,0,0,1,1.03-.525a2.764,2.764,0,0,1-.679-1.99,3.006,3.006,0,0,1,.684-2.046A2.255,2.255,0,0,1,2.822-5.347Zm1.4,2.314a2.277,2.277,0,0,0-.249-.913A1.276,1.276,0,0,0,2.769-4.58a1.337,1.337,0,0,0-1.016.437,1.651,1.651,0,0,0-.435,1.111Zm1.753-.205H8.428v.9H5.977Zm4.15-3.936,1.353,5.835L13.1-7.173h1.055l1.621,5.835,1.353-5.835h1.064L16.309,0H15.288L13.633-5.947,11.968,0H10.947L9.072-7.173Zm9.155,5.781a.724.724,0,0,0,.278.6,1.032,1.032,0,0,0,.659.22,2,2,0,0,0,.9-.215,1.209,1.209,0,0,0,.732-1.167v-.708a1.5,1.5,0,0,1-.415.171,3.537,3.537,0,0,1-.5.1l-.532.068a2.036,2.036,0,0,0-.718.2A.78.78,0,0,0,19.282-1.392Zm2.129-1.777a.477.477,0,0,0,.405-.254.773.773,0,0,0,.059-.337.714.714,0,0,0-.32-.652,1.716,1.716,0,0,0-.916-.2,1.163,1.163,0,0,0-.977.371,1.221,1.221,0,0,0-.21.61h-.82a1.51,1.51,0,0,1,.627-1.345,2.576,2.576,0,0,1,1.4-.378,2.846,2.846,0,0,1,1.5.352,1.193,1.193,0,0,1,.571,1.094V-.9a.386.386,0,0,0,.056.22.271.271,0,0,0,.237.083q.059,0,.132-.007t.156-.022V.024A2.448,2.448,0,0,1,23,.1a2.284,2.284,0,0,1-.293.015.723.723,0,0,1-.659-.322,1.244,1.244,0,0,1-.151-.483,2.236,2.236,0,0,1-.771.61,2.386,2.386,0,0,1-1.108.259,1.648,1.648,0,0,1-1.189-.442,1.468,1.468,0,0,1-.461-1.106A1.424,1.424,0,0,1,18.818-2.5a2.161,2.161,0,0,1,1.191-.493Zm2.783-4h.879V0h-.879Zm2.222,0h.879V0h-.879Zm4.375,1.826a2.385,2.385,0,0,1,1.079.261,1.99,1.99,0,0,1,.8.676,2.333,2.333,0,0,1,.352.923A6.038,6.038,0,0,1,33.1-2.334H29.263a2.237,2.237,0,0,0,.376,1.277,1.259,1.259,0,0,0,1.089.481,1.408,1.408,0,0,0,1.1-.454,1.531,1.531,0,0,0,.332-.61h.864A1.82,1.82,0,0,1,32.8-1a2.284,2.284,0,0,1-.432.579,2.048,2.048,0,0,1-.991.527,3.011,3.011,0,0,1-.718.078A2.2,2.2,0,0,1,29-.525a2.764,2.764,0,0,1-.679-1.99A3.006,3.006,0,0,1,29-4.561,2.255,2.255,0,0,1,30.791-5.347Zm1.4,2.314a2.277,2.277,0,0,0-.249-.913,1.276,1.276,0,0,0-1.206-.635,1.337,1.337,0,0,0-1.016.437,1.651,1.651,0,0,0-.435,1.111Zm2.158-3.657h.889v1.46h.835v.718h-.835V-1.1a.369.369,0,0,0,.186.366.789.789,0,0,0,.342.054l.137,0q.073,0,.171-.012V0a1.962,1.962,0,0,1-.315.063,2.994,2.994,0,0,1-.354.02.954.954,0,0,1-.835-.315,1.4,1.4,0,0,1-.22-.818V-4.512h-.708v-.718h.708Z" transform="translate(4987 1421)" fill="#fff"/><path d="M4.282-2.139A3.037,3.037,0,0,1,4.014-.728,1.957,1.957,0,0,1,2.119.19,2.2,2.2,0,0,1,.742-.247,1.848,1.848,0,0,1,.171-1.8v-.513h.913V-1.8a1.3,1.3,0,0,0,.261.881,1.031,1.031,0,0,0,.813.3,1,1,0,0,0,1.016-.532A3.464,3.464,0,0,0,3.32-2.393v-4.78h.962ZM7.72-.566a1.212,1.212,0,0,0,1.2-.662A3.3,3.3,0,0,0,9.243-2.7a2.621,2.621,0,0,0-.234-1.191,1.318,1.318,0,0,0-1.279-.723A1.262,1.262,0,0,0,6.558-4a2.852,2.852,0,0,0-.366,1.484,2.481,2.481,0,0,0,.366,1.392A1.29,1.29,0,0,0,7.72-.566Zm.034-4.814a2.368,2.368,0,0,1,1.709.674,2.631,2.631,0,0,1,.7,1.982,3.4,3.4,0,0,1-.615,2.09A2.226,2.226,0,0,1,7.637.19,2.155,2.155,0,0,1,5.923-.54,2.883,2.883,0,0,1,5.288-2.5a3.119,3.119,0,0,1,.669-2.1A2.245,2.245,0,0,1,7.754-5.381Zm3.452.151h.835v.742a2.342,2.342,0,0,1,.786-.659,2.1,2.1,0,0,1,.923-.2,1.522,1.522,0,0,1,1.5.776,2.757,2.757,0,0,1,.215,1.216V0h-.894V-3.3a1.785,1.785,0,0,0-.142-.771.858.858,0,0,0-.85-.488,1.73,1.73,0,0,0-.513.063,1.32,1.32,0,0,0-.635.43,1.294,1.294,0,0,0-.286.535,3.6,3.6,0,0,0-.066.789V0h-.879Zm6.235,3.838a.724.724,0,0,0,.278.6,1.032,1.032,0,0,0,.659.22,2,2,0,0,0,.9-.215,1.209,1.209,0,0,0,.732-1.167v-.708a1.5,1.5,0,0,1-.415.171,3.537,3.537,0,0,1-.5.1l-.532.068a2.036,2.036,0,0,0-.718.2A.78.78,0,0,0,17.441-1.392ZM19.57-3.169a.477.477,0,0,0,.405-.254.773.773,0,0,0,.059-.337.714.714,0,0,0-.32-.652,1.716,1.716,0,0,0-.916-.2,1.163,1.163,0,0,0-.977.371,1.221,1.221,0,0,0-.21.61h-.82a1.51,1.51,0,0,1,.627-1.345,2.576,2.576,0,0,1,1.4-.378,2.846,2.846,0,0,1,1.5.352,1.193,1.193,0,0,1,.571,1.094V-.9a.386.386,0,0,0,.056.22.271.271,0,0,0,.237.083q.059,0,.132-.007t.156-.022V.024A2.448,2.448,0,0,1,21.157.1a2.284,2.284,0,0,1-.293.015.723.723,0,0,1-.659-.322,1.244,1.244,0,0,1-.151-.483,2.236,2.236,0,0,1-.771.61,2.386,2.386,0,0,1-1.108.259,1.648,1.648,0,0,1-1.189-.442,1.468,1.468,0,0,1-.461-1.106A1.424,1.424,0,0,1,16.978-2.5a2.161,2.161,0,0,1,1.191-.493ZM22.5-6.689h.889v1.46h.835v.718h-.835V-1.1a.369.369,0,0,0,.186.366.789.789,0,0,0,.342.054l.137,0q.073,0,.171-.012V0a1.962,1.962,0,0,1-.315.063,2.994,2.994,0,0,1-.354.02.954.954,0,0,1-.835-.315,1.4,1.4,0,0,1-.22-.818V-4.512H21.8v-.718H22.5Zm2.6-.508h.879v2.676a2.538,2.538,0,0,1,.562-.557,1.894,1.894,0,0,1,1.06-.278,1.567,1.567,0,0,1,1.543.8,2.714,2.714,0,0,1,.22,1.206V0h-.9V-3.3a1.843,1.843,0,0,0-.146-.845.936.936,0,0,0-.9-.43,1.5,1.5,0,0,0-.991.376,1.808,1.808,0,0,0-.444,1.421V0h-.879Zm6.235,5.806a.724.724,0,0,0,.278.6,1.032,1.032,0,0,0,.659.22,2,2,0,0,0,.9-.215,1.209,1.209,0,0,0,.732-1.167v-.708a1.5,1.5,0,0,1-.415.171,3.537,3.537,0,0,1-.5.1l-.532.068a2.036,2.036,0,0,0-.718.2A.78.78,0,0,0,31.343-1.392Zm2.129-1.777a.477.477,0,0,0,.405-.254.773.773,0,0,0,.059-.337.714.714,0,0,0-.32-.652,1.716,1.716,0,0,0-.916-.2,1.163,1.163,0,0,0-.977.371,1.221,1.221,0,0,0-.21.61h-.82a1.51,1.51,0,0,1,.627-1.345,2.576,2.576,0,0,1,1.4-.378,2.846,2.846,0,0,1,1.5.352,1.193,1.193,0,0,1,.571,1.094V-.9a.386.386,0,0,0,.056.22.271.271,0,0,0,.237.083q.059,0,.132-.007t.156-.022V.024A2.448,2.448,0,0,1,35.059.1a2.284,2.284,0,0,1-.293.015.723.723,0,0,1-.659-.322,1.244,1.244,0,0,1-.151-.483,2.236,2.236,0,0,1-.771.61,2.386,2.386,0,0,1-1.108.259,1.648,1.648,0,0,1-1.189-.442,1.468,1.468,0,0,1-.461-1.106A1.424,1.424,0,0,1,30.879-2.5a2.161,2.161,0,0,1,1.191-.493ZM36.23-5.229h.835v.742a2.342,2.342,0,0,1,.786-.659,2.1,2.1,0,0,1,.923-.2,1.522,1.522,0,0,1,1.5.776,2.757,2.757,0,0,1,.215,1.216V0H39.6V-3.3a1.785,1.785,0,0,0-.142-.771.858.858,0,0,0-.85-.488,1.73,1.73,0,0,0-.513.063,1.32,1.32,0,0,0-.635.43,1.294,1.294,0,0,0-.286.535,3.6,3.6,0,0,0-.066.789V0H36.23Zm8.55-1.943h3.228a2.188,2.188,0,0,1,1.543.54,1.958,1.958,0,0,1,.586,1.516,2.2,2.2,0,0,1-.522,1.462,1.98,1.98,0,0,1-1.606.623H45.752V0H44.78Zm4.375,2.061a1.079,1.079,0,0,0-.586-1.074,2.116,2.116,0,0,0-.884-.151H45.752v2.485h1.934a1.848,1.848,0,0,0,1.062-.278A1.1,1.1,0,0,0,49.155-5.112Zm2.759,3.721a.724.724,0,0,0,.278.6,1.032,1.032,0,0,0,.659.22,2,2,0,0,0,.9-.215,1.209,1.209,0,0,0,.732-1.167v-.708a1.5,1.5,0,0,1-.415.171,3.537,3.537,0,0,1-.5.1l-.532.068a2.036,2.036,0,0,0-.718.2A.78.78,0,0,0,51.914-1.392Zm2.129-1.777a.477.477,0,0,0,.405-.254.773.773,0,0,0,.059-.337.714.714,0,0,0-.32-.652,1.716,1.716,0,0,0-.916-.2,1.163,1.163,0,0,0-.977.371,1.221,1.221,0,0,0-.21.61h-.82a1.51,1.51,0,0,1,.627-1.345,2.576,2.576,0,0,1,1.4-.378A2.846,2.846,0,0,1,54.79-5a1.193,1.193,0,0,1,.571,1.094V-.9a.386.386,0,0,0,.056.22.271.271,0,0,0,.237.083q.059,0,.132-.007t.156-.022V.024A2.448,2.448,0,0,1,55.63.1a2.284,2.284,0,0,1-.293.015.723.723,0,0,1-.659-.322,1.244,1.244,0,0,1-.151-.483,2.236,2.236,0,0,1-.771.61,2.386,2.386,0,0,1-1.108.259,1.648,1.648,0,0,1-1.189-.442A1.468,1.468,0,0,1,51-1.372,1.424,1.424,0,0,1,51.45-2.5a2.161,2.161,0,0,1,1.191-.493ZM56.8-5.229h.835v.742a2.342,2.342,0,0,1,.786-.659,2.1,2.1,0,0,1,.923-.2,1.522,1.522,0,0,1,1.5.776,2.757,2.757,0,0,1,.215,1.216V0h-.894V-3.3a1.785,1.785,0,0,0-.142-.771.858.858,0,0,0-.85-.488,1.73,1.73,0,0,0-.513.063,1.32,1.32,0,0,0-.635.43,1.294,1.294,0,0,0-.286.535,3.6,3.6,0,0,0-.066.789V0H56.8Zm7.407-.093a1.906,1.906,0,0,1,1.074.3,2.413,2.413,0,0,1,.508.5v-.659H66.6V-.425a3.507,3.507,0,0,1-.293,1.572,2.1,2.1,0,0,1-2.065,1.064,2.534,2.534,0,0,1-1.421-.378A1.476,1.476,0,0,1,62.178.649h.894a.994.994,0,0,0,.254.542,1.3,1.3,0,0,0,.938.293A1.29,1.29,0,0,0,65.586.771a4.015,4.015,0,0,0,.171-1.5,1.724,1.724,0,0,1-.635.6,2.112,2.112,0,0,1-.981.2,2.1,2.1,0,0,1-1.487-.6,2.652,2.652,0,0,1-.637-1.995,3.021,3.021,0,0,1,.642-2.051A1.985,1.985,0,0,1,64.209-5.322Zm1.582,2.686a2.18,2.18,0,0,0-.4-1.44,1.283,1.283,0,0,0-1.021-.469,1.26,1.26,0,0,0-1.27.869,3.408,3.408,0,0,0-.181,1.216,2.158,2.158,0,0,0,.359,1.345,1.159,1.159,0,0,0,.964.461,1.354,1.354,0,0,0,1.333-.854A2.756,2.756,0,0,0,65.791-2.637ZM67.856-7.2h.854v2.6a1.949,1.949,0,0,1,.688-.574,1.936,1.936,0,0,1,.869-.2,2.037,2.037,0,0,1,1.584.671,2.86,2.86,0,0,1,.608,1.98,3.4,3.4,0,0,1-.6,2.061A1.948,1.948,0,0,1,70.2.166a1.706,1.706,0,0,1-1.006-.288,2.429,2.429,0,0,1-.522-.547V0h-.811ZM70.142-.61a1.174,1.174,0,0,0,1.067-.566,2.789,2.789,0,0,0,.354-1.494,2.452,2.452,0,0,0-.354-1.367,1.166,1.166,0,0,0-1.042-.542,1.454,1.454,0,0,0-1.052.444,2,2,0,0,0-.452,1.465,3.237,3.237,0,0,0,.186,1.2A1.282,1.282,0,0,0,70.142-.61Zm5.42.044a1.212,1.212,0,0,0,1.2-.662A3.3,3.3,0,0,0,77.085-2.7a2.621,2.621,0,0,0-.234-1.191,1.318,1.318,0,0,0-1.279-.723A1.262,1.262,0,0,0,74.4-4a2.852,2.852,0,0,0-.366,1.484A2.481,2.481,0,0,0,74.4-1.123,1.29,1.29,0,0,0,75.562-.566ZM75.6-5.381a2.368,2.368,0,0,1,1.709.674A2.631,2.631,0,0,1,78-2.725a3.4,3.4,0,0,1-.615,2.09A2.226,2.226,0,0,1,75.479.19a2.155,2.155,0,0,1-1.714-.73A2.883,2.883,0,0,1,73.13-2.5,3.119,3.119,0,0,1,73.8-4.6,2.245,2.245,0,0,1,75.6-5.381Zm3.477.151h.835v.9a2,2,0,0,1,.5-.642,1.3,1.3,0,0,1,.923-.378l.083,0,.2.02v.928a1.313,1.313,0,0,0-.144-.02q-.066,0-.144,0a1.254,1.254,0,0,0-1.021.427,1.491,1.491,0,0,0-.356.984V0h-.879Zm3.306,0h.835v.742A2.342,2.342,0,0,1,84-5.146a2.1,2.1,0,0,1,.923-.2,1.522,1.522,0,0,1,1.5.776,2.757,2.757,0,0,1,.215,1.216V0h-.894V-3.3a1.785,1.785,0,0,0-.142-.771.858.858,0,0,0-.85-.488,1.73,1.73,0,0,0-.513.063,1.32,1.32,0,0,0-.635.43,1.294,1.294,0,0,0-.286.535,3.6,3.6,0,0,0-.066.789V0h-.879Z" transform="translate(4987 1459)" fill="#fff"/><path d="M.609-5.738h.777V-.684H4.293V0H.609ZM6.625-.453a.97.97,0,0,0,.959-.529,2.637,2.637,0,0,0,.26-1.178,2.1,2.1,0,0,0-.187-.953,1.055,1.055,0,0,0-1.023-.578A1.009,1.009,0,0,0,5.7-3.2,2.281,2.281,0,0,0,5.4-2.012,1.984,1.984,0,0,0,5.7-.9,1.032,1.032,0,0,0,6.625-.453ZM6.652-4.3a1.894,1.894,0,0,1,1.367.539A2.105,2.105,0,0,1,8.578-2.18,2.721,2.721,0,0,1,8.086-.508a1.78,1.78,0,0,1-1.527.66A1.724,1.724,0,0,1,5.188-.432,2.307,2.307,0,0,1,4.68-2a2.5,2.5,0,0,1,.535-1.68A1.8,1.8,0,0,1,6.652-4.3Zm3.3,3.191a.579.579,0,0,0,.223.48.826.826,0,0,0,.527.176,1.6,1.6,0,0,0,.719-.172.967.967,0,0,0,.586-.934v-.566a1.2,1.2,0,0,1-.332.137,2.829,2.829,0,0,1-.4.078l-.426.055a1.628,1.628,0,0,0-.574.16A.624.624,0,0,0,9.953-1.113Zm1.7-1.422a.382.382,0,0,0,.324-.2.618.618,0,0,0,.047-.27.571.571,0,0,0-.256-.521,1.373,1.373,0,0,0-.732-.162.931.931,0,0,0-.781.3.977.977,0,0,0-.168.488H9.434a1.208,1.208,0,0,1,.5-1.076,2.061,2.061,0,0,1,1.119-.3,2.277,2.277,0,0,1,1.2.281.954.954,0,0,1,.457.875v2.41a.309.309,0,0,0,.045.176.217.217,0,0,0,.189.066q.047,0,.105-.006T13.176-.5V.02a1.958,1.958,0,0,1-.25.059,1.827,1.827,0,0,1-.234.012.578.578,0,0,1-.527-.258,1,1,0,0,1-.121-.387,1.789,1.789,0,0,1-.617.488,1.909,1.909,0,0,1-.887.207,1.319,1.319,0,0,1-.951-.354A1.174,1.174,0,0,1,9.219-1.1,1.14,1.14,0,0,1,9.582-2a1.728,1.728,0,0,1,.953-.395Zm2.652.492a2.074,2.074,0,0,0,.285,1.125,1,1,0,0,0,.914.453.963.963,0,0,0,.8-.42,1.983,1.983,0,0,0,.314-1.205A1.782,1.782,0,0,0,16.3-3.264a1.011,1.011,0,0,0-.8-.381,1.057,1.057,0,0,0-.861.406A1.861,1.861,0,0,0,14.309-2.043Zm1.059-2.215a1.488,1.488,0,0,1,.8.2,1.89,1.89,0,0,1,.426.41V-5.758h.676V0h-.633V-.582a1.521,1.521,0,0,1-.582.559,1.666,1.666,0,0,1-.77.172,1.558,1.558,0,0,1-1.211-.588A2.3,2.3,0,0,1,13.566-2a2.7,2.7,0,0,1,.467-1.584A1.528,1.528,0,0,1,15.367-4.258Zm5.242-1.48h1.113L23.371-.887l1.637-4.852h1.1V0h-.738V-3.387q0-.176.008-.582t.008-.871L23.75,0h-.77L21.332-4.84v.176q0,.211.01.643t.01.635V0h-.742Zm8.25,5.285a.97.97,0,0,0,.959-.529,2.637,2.637,0,0,0,.26-1.178,2.1,2.1,0,0,0-.187-.953,1.055,1.055,0,0,0-1.023-.578,1.009,1.009,0,0,0-.937.492,2.281,2.281,0,0,0-.293,1.188A1.984,1.984,0,0,0,27.93-.9,1.032,1.032,0,0,0,28.859-.453ZM28.887-4.3a1.894,1.894,0,0,1,1.367.539,2.105,2.105,0,0,1,.559,1.586A2.721,2.721,0,0,1,30.32-.508a1.78,1.78,0,0,1-1.527.66,1.724,1.724,0,0,1-1.371-.584A2.307,2.307,0,0,1,26.914-2a2.5,2.5,0,0,1,.535-1.68A1.8,1.8,0,0,1,28.887-4.3Zm2.781.121h.668v.723a1.6,1.6,0,0,1,.4-.514,1.043,1.043,0,0,1,.738-.3l.066,0,.16.016v.742a1.05,1.05,0,0,0-.115-.016q-.053,0-.115,0a1,1,0,0,0-.816.342,1.193,1.193,0,0,0-.285.787V0h-.7Zm4.387-.094a1.908,1.908,0,0,1,.863.209,1.592,1.592,0,0,1,.637.541,1.866,1.866,0,0,1,.281.738,4.83,4.83,0,0,1,.063.922H34.832a1.789,1.789,0,0,0,.3,1.021A1.007,1.007,0,0,0,36-.461a1.126,1.126,0,0,0,.879-.363,1.225,1.225,0,0,0,.266-.488h.691a1.456,1.456,0,0,1-.182.514,1.827,1.827,0,0,1-.346.463,1.639,1.639,0,0,1-.793.422,2.409,2.409,0,0,1-.574.063A1.762,1.762,0,0,1,34.621-.42a2.211,2.211,0,0,1-.543-1.592,2.4,2.4,0,0,1,.547-1.637A1.8,1.8,0,0,1,36.055-4.277Zm1.121,1.852a1.822,1.822,0,0,0-.2-.73,1.021,1.021,0,0,0-.965-.508,1.07,1.07,0,0,0-.812.35,1.321,1.321,0,0,0-.348.889Z" transform="translate(4955 1496)" fill="#fff"/><path d="M-22.378-3.237h2.451v.9h-2.451ZM-16.372,0A4.078,4.078,0,0,1-16-1.572a3.024,3.024,0,0,1,1.267-1.216l.938-.542a4.414,4.414,0,0,0,.884-.625,1.284,1.284,0,0,0,.4-.928,1.3,1.3,0,0,0-.366-.969,1.335,1.335,0,0,0-.977-.359,1.276,1.276,0,0,0-1.25.684,2.447,2.447,0,0,0-.205,1.016H-16.2A3.138,3.138,0,0,1-15.864-6a2.114,2.114,0,0,1,2.017-1.016,2.186,2.186,0,0,1,1.755.649,2.173,2.173,0,0,1,.554,1.445,1.965,1.965,0,0,1-.591,1.436,5.784,5.784,0,0,1-1.226.84l-.669.371a4.333,4.333,0,0,0-.752.5,1.832,1.832,0,0,0-.615.942h3.818V0Zm8.555-2.476V-5.645l-2.241,3.169ZM-7.8,0V-1.709h-3.066v-.859l3.2-4.443h.742v4.536h1.03v.767h-1.03V0Zm3.477-1.782a1.218,1.218,0,0,0,.7,1.04A1.685,1.685,0,0,0-2.905-.6a1.357,1.357,0,0,0,1.157-.5,1.789,1.789,0,0,0,.376-1.1A1.442,1.442,0,0,0-1.819-3.33a1.551,1.551,0,0,0-1.072-.4,1.614,1.614,0,0,0-.779.176,1.668,1.668,0,0,0-.554.488l-.762-.044.532-3.765H-.82v.85H-3.794l-.3,1.943a2.184,2.184,0,0,1,.464-.278,2.355,2.355,0,0,1,.9-.161,2.311,2.311,0,0,1,1.631.62A2.051,2.051,0,0,1-.425-2.329,2.7,2.7,0,0,1-1.038-.581,2.37,2.37,0,0,1-2.993.176,2.491,2.491,0,0,1-4.5-.305a1.908,1.908,0,0,1-.735-1.477Z" transform="translate(5149 1383)" fill="#fff"/><path d="M-22.378-3.237h2.451v.9h-2.451Zm6.65-1.714v-.674a3.58,3.58,0,0,0,1.328-.31,1.528,1.528,0,0,0,.562-1.028h.693V0h-.937V-4.951Zm7.31-2.041A2.066,2.066,0,0,1-6.455-5.874a5,5,0,0,1,.469,2.368,5.7,5.7,0,0,1-.425,2.358A2.08,2.08,0,0,1-8.423.19,2.014,2.014,0,0,1-10.3-.9a5.008,5.008,0,0,1-.513-2.451A6.056,6.056,0,0,1-10.5-5.4,2.105,2.105,0,0,1-8.418-6.992ZM-8.428-.61a1.251,1.251,0,0,0,1.089-.605,4.384,4.384,0,0,0,.405-2.256,5.573,5.573,0,0,0-.293-1.96A1.115,1.115,0,0,0-8.364-6.2a1.189,1.189,0,0,0-1.135.73A5.041,5.041,0,0,0-9.858-3.32,5.282,5.282,0,0,0-9.629-1.6,1.251,1.251,0,0,0-8.428-.61Zm4.1-1.172a1.218,1.218,0,0,0,.7,1.04A1.685,1.685,0,0,0-2.905-.6a1.357,1.357,0,0,0,1.157-.5,1.789,1.789,0,0,0,.376-1.1A1.442,1.442,0,0,0-1.819-3.33a1.551,1.551,0,0,0-1.072-.4,1.614,1.614,0,0,0-.779.176,1.668,1.668,0,0,0-.554.488l-.762-.044.532-3.765H-.82v.85H-3.794l-.3,1.943a2.184,2.184,0,0,1,.464-.278,2.355,2.355,0,0,1,.9-.161,2.311,2.311,0,0,1,1.631.62A2.051,2.051,0,0,1-.425-2.329,2.7,2.7,0,0,1-1.038-.581,2.37,2.37,0,0,1-2.993.176,2.491,2.491,0,0,1-4.5-.305a1.908,1.908,0,0,1-.735-1.477Z" transform="translate(5149 1421)" fill="#fff"/><path d="M-30.415-2.139v-.82h2.129V-5.1h.835v2.144h2.129v.82h-2.129V0h-.835V-2.139ZM-21.934,0a4.078,4.078,0,0,1,.374-1.572,3.024,3.024,0,0,1,1.267-1.216l.938-.542a4.414,4.414,0,0,0,.884-.625,1.284,1.284,0,0,0,.4-.928,1.3,1.3,0,0,0-.366-.969,1.335,1.335,0,0,0-.977-.359,1.276,1.276,0,0,0-1.25.684,2.447,2.447,0,0,0-.205,1.016h-.894A3.138,3.138,0,0,1-21.426-6a2.115,2.115,0,0,1,2.017-1.016,2.186,2.186,0,0,1,1.755.649A2.173,2.173,0,0,1-17.1-4.922a1.965,1.965,0,0,1-.591,1.436,5.784,5.784,0,0,1-1.226.84l-.669.371a4.333,4.333,0,0,0-.752.5,1.832,1.832,0,0,0-.615.942h3.818V0Zm8.555-2.476V-5.645L-15.62-2.476ZM-13.364,0V-1.709h-3.066v-.859l3.2-4.443h.742v4.536h1.03v.767h-1.03V0Zm3.477-1.782a1.218,1.218,0,0,0,.7,1.04A1.685,1.685,0,0,0-8.467-.6a1.357,1.357,0,0,0,1.157-.5,1.789,1.789,0,0,0,.376-1.1A1.442,1.442,0,0,0-7.38-3.33a1.551,1.551,0,0,0-1.072-.4,1.614,1.614,0,0,0-.779.176,1.668,1.668,0,0,0-.554.488l-.762-.044.532-3.765h3.633v.85H-9.355l-.3,1.943a2.184,2.184,0,0,1,.464-.278,2.355,2.355,0,0,1,.9-.161,2.311,2.311,0,0,1,1.631.62,2.051,2.051,0,0,1,.669,1.572A2.7,2.7,0,0,1-6.6-.581,2.37,2.37,0,0,1-8.555.176a2.491,2.491,0,0,1-1.511-.481A1.908,1.908,0,0,1-10.8-1.782Zm7.031-5.21A2.066,2.066,0,0,1-.894-5.874,5,5,0,0,1-.425-3.506,5.7,5.7,0,0,1-.85-1.147,2.08,2.08,0,0,1-2.861.19,2.014,2.014,0,0,1-4.736-.9a5.008,5.008,0,0,1-.513-2.451A6.056,6.056,0,0,1-4.941-5.4,2.105,2.105,0,0,1-2.856-6.992ZM-2.866-.61a1.251,1.251,0,0,0,1.089-.605,4.384,4.384,0,0,0,.405-2.256,5.573,5.573,0,0,0-.293-1.96A1.115,1.115,0,0,0-2.8-6.2a1.189,1.189,0,0,0-1.135.73A5.041,5.041,0,0,0-4.3-3.32,5.282,5.282,0,0,0-4.067-1.6,1.251,1.251,0,0,0-2.866-.61Z" transform="translate(5149 1459)" fill="#fff"/><path d="M2.314-4.421A1.97,1.97,0,0,1,4-3.688,2.374,2.374,0,0,1,4.43-2.227a2.558,2.558,0,0,1-.489,1.6A1.94,1.94,0,0,1,2.3.126,1.957,1.957,0,0,1,.741-.53a2.478,2.478,0,0,1-.507-1.6A2.544,2.544,0,0,1,.668-3.624,1.878,1.878,0,0,1,2.314-4.421ZM2.373-.4A1.214,1.214,0,0,0,3.488-.948a2.351,2.351,0,0,0,.344-1.27,1.812,1.812,0,0,0-.4-1.222A1.355,1.355,0,0,0,2.35-3.9a1.413,1.413,0,0,0-1.09.458A1.932,1.932,0,0,0,.838-2.092,1.975,1.975,0,0,0,1.2-.886,1.361,1.361,0,0,0,2.373-.4ZM5.581-3.138v2.083a.878.878,0,0,0,.076.393.532.532,0,0,0,.524.281.741.741,0,0,0,.75-.492A1.953,1.953,0,0,0,7.04-1.6V-3.138h.527V0h-.5l.006-.463a1.064,1.064,0,0,1-.255.3,1.122,1.122,0,0,1-.732.246.945.945,0,0,1-.914-.448A1.335,1.335,0,0,1,5.042-1V-3.138ZM8.5-4.014h.533v.876h.5v.431h-.5V-.659a.222.222,0,0,0,.111.22.473.473,0,0,0,.205.032h.082q.044,0,.1-.007V0a1.177,1.177,0,0,1-.189.038A1.8,1.8,0,0,1,9.129.05a.572.572,0,0,1-.5-.189A.84.84,0,0,1,8.5-.63V-2.707H8.071v-.431H8.5Zm2.669.82a1.144,1.144,0,0,1,.645.182,1.448,1.448,0,0,1,.3.3v-.4H12.6V-.255a2.1,2.1,0,0,1-.176.943,1.262,1.262,0,0,1-1.239.639,1.52,1.52,0,0,1-.853-.227A.885.885,0,0,1,9.946.39h.536a.6.6,0,0,0,.152.325A.777.777,0,0,0,11.2.891a.774.774,0,0,0,.794-.428,2.409,2.409,0,0,0,.1-.9,1.035,1.035,0,0,1-.381.357,1.267,1.267,0,0,1-.589.117,1.257,1.257,0,0,1-.892-.362,1.591,1.591,0,0,1-.382-1.2,1.812,1.812,0,0,1,.385-1.23A1.191,1.191,0,0,1,11.165-3.193Zm.949,1.611a1.308,1.308,0,0,0-.24-.864.77.77,0,0,0-.612-.281.756.756,0,0,0-.762.521,2.045,2.045,0,0,0-.108.729,1.3,1.3,0,0,0,.215.807.7.7,0,0,0,.579.277.812.812,0,0,0,.8-.513A1.654,1.654,0,0,0,12.114-1.582ZM14.64-.34a.727.727,0,0,0,.719-.4,1.978,1.978,0,0,0,.195-.883,1.573,1.573,0,0,0-.141-.715.791.791,0,0,0-.768-.434.757.757,0,0,0-.7.369,1.711,1.711,0,0,0-.22.891,1.488,1.488,0,0,0,.22.835A.774.774,0,0,0,14.64-.34Zm.021-2.889a1.421,1.421,0,0,1,1.025.4A1.579,1.579,0,0,1,16.1-1.635a2.041,2.041,0,0,1-.369,1.254,1.335,1.335,0,0,1-1.146.5,1.293,1.293,0,0,1-1.028-.438A1.73,1.73,0,0,1,13.181-1.5a1.872,1.872,0,0,1,.4-1.26A1.347,1.347,0,0,1,14.66-3.229Zm2.071.105h.536V0h-.536Zm0-1.181h.536v.6h-.536Zm1.333,1.166h.5v.445a1.405,1.405,0,0,1,.472-.4,1.258,1.258,0,0,1,.554-.12.913.913,0,0,1,.9.466,1.654,1.654,0,0,1,.129.729V0h-.536V-1.978A1.071,1.071,0,0,0,20-2.44a.515.515,0,0,0-.51-.293,1.038,1.038,0,0,0-.308.038.792.792,0,0,0-.381.258.776.776,0,0,0-.171.321,2.159,2.159,0,0,0-.04.473V0h-.527Zm4.444-.056a1.144,1.144,0,0,1,.645.182,1.448,1.448,0,0,1,.3.3v-.4h.486V-.255a2.1,2.1,0,0,1-.176.943,1.262,1.262,0,0,1-1.239.639,1.52,1.52,0,0,1-.853-.227A.885.885,0,0,1,21.29.39h.536a.6.6,0,0,0,.152.325.777.777,0,0,0,.563.176.774.774,0,0,0,.794-.428,2.409,2.409,0,0,0,.1-.9,1.035,1.035,0,0,1-.381.357,1.267,1.267,0,0,1-.589.117,1.257,1.257,0,0,1-.892-.362,1.591,1.591,0,0,1-.382-1.2,1.812,1.812,0,0,1,.385-1.23A1.191,1.191,0,0,1,22.509-3.193Zm.949,1.611a1.308,1.308,0,0,0-.24-.864.77.77,0,0,0-.612-.281.756.756,0,0,0-.762.521,2.045,2.045,0,0,0-.108.729,1.3,1.3,0,0,0,.215.807.7.7,0,0,0,.579.277.812.812,0,0,0,.8-.513A1.654,1.654,0,0,0,23.458-1.582Z" transform="translate(4987 1394)" fill="#fff"/><path d="M3.589-4.3v.513H2.139V0H1.547V-3.791H.1V-4.3ZM4.632-.34a.727.727,0,0,0,.719-.4,1.978,1.978,0,0,0,.195-.883,1.573,1.573,0,0,0-.141-.715.791.791,0,0,0-.768-.434.757.757,0,0,0-.7.369,1.711,1.711,0,0,0-.22.891,1.488,1.488,0,0,0,.22.835A.774.774,0,0,0,4.632-.34Zm.021-2.889a1.421,1.421,0,0,1,1.025.4A1.579,1.579,0,0,1,6.1-1.635,2.041,2.041,0,0,1,5.728-.381a1.335,1.335,0,0,1-1.146.5A1.293,1.293,0,0,1,3.554-.324,1.73,1.73,0,0,1,3.173-1.5a1.872,1.872,0,0,1,.4-1.26A1.347,1.347,0,0,1,4.652-3.229Zm3.4,2.874a.752.752,0,0,0,.614-.309,1.471,1.471,0,0,0,.245-.924A1.725,1.725,0,0,0,8.8-2.232a.748.748,0,0,0-.75-.519A.748.748,0,0,0,7.3-2.2a2.171,2.171,0,0,0-.108.744A1.577,1.577,0,0,0,7.3-.841.748.748,0,0,0,8.048-.354ZM6.683-3.123H7.2v.416a1.28,1.28,0,0,1,.346-.331,1.113,1.113,0,0,1,.627-.176,1.179,1.179,0,0,1,.905.409,1.674,1.674,0,0,1,.372,1.167A1.793,1.793,0,0,1,8.909-.173a1.211,1.211,0,0,1-.791.278A1.074,1.074,0,0,1,7.523-.05a1.37,1.37,0,0,1-.313-.3v1.6H6.683Zm5.572-.015v2.083a.878.878,0,0,0,.076.393.532.532,0,0,0,.524.281.741.741,0,0,0,.75-.492,1.953,1.953,0,0,0,.108-.724V-3.138h.527V0h-.5l.006-.463a1.064,1.064,0,0,1-.255.3,1.122,1.122,0,0,1-.732.246.945.945,0,0,1-.914-.448A1.335,1.335,0,0,1,11.716-1V-3.138ZM16.389-.354A.752.752,0,0,0,17-.664a1.471,1.471,0,0,0,.245-.924,1.725,1.725,0,0,0-.108-.645.748.748,0,0,0-.75-.519.748.748,0,0,0-.75.548,2.171,2.171,0,0,0-.108.744,1.577,1.577,0,0,0,.108.618A.748.748,0,0,0,16.389-.354ZM15.023-3.123h.513v.416a1.28,1.28,0,0,1,.346-.331,1.113,1.113,0,0,1,.627-.176,1.179,1.179,0,0,1,.905.409,1.674,1.674,0,0,1,.372,1.167A1.793,1.793,0,0,1,17.25-.173a1.211,1.211,0,0,1-.791.278,1.074,1.074,0,0,1-.595-.155,1.37,1.37,0,0,1-.313-.3v1.6h-.527Zm6.352-.085a1.431,1.431,0,0,1,.647.157,1.194,1.194,0,0,1,.478.406,1.4,1.4,0,0,1,.211.554,3.623,3.623,0,0,1,.047.691h-2.3a1.342,1.342,0,0,0,.226.766.755.755,0,0,0,.653.289A.845.845,0,0,0,22-.618a.918.918,0,0,0,.2-.366h.519a1.092,1.092,0,0,1-.136.385,1.37,1.37,0,0,1-.259.347,1.229,1.229,0,0,1-.595.316,1.807,1.807,0,0,1-.431.047A1.321,1.321,0,0,1,20.3-.315a1.659,1.659,0,0,1-.407-1.194,1.8,1.8,0,0,1,.41-1.228A1.353,1.353,0,0,1,21.375-3.208Zm.841,1.389a1.366,1.366,0,0,0-.149-.548.766.766,0,0,0-.724-.381.8.8,0,0,0-.609.262.991.991,0,0,0-.261.667Zm1.052-.123h1.471V-1.4H23.268Zm2.379-1.2.6,2.473.612-2.473h.592L28.069-.68l.642-2.458h.527L28.327,0h-.548l-.639-2.429L26.522,0h-.548l-.905-3.138Zm4.494,2.3a.434.434,0,0,0,.167.36.619.619,0,0,0,.4.132,1.2,1.2,0,0,0,.539-.129.725.725,0,0,0,.439-.7V-1.6a.9.9,0,0,1-.249.1,2.122,2.122,0,0,1-.3.059l-.319.041a1.221,1.221,0,0,0-.431.12A.468.468,0,0,0,30.141-.835ZM31.418-1.9a.286.286,0,0,0,.243-.152.464.464,0,0,0,.035-.2.428.428,0,0,0-.192-.391,1.03,1.03,0,0,0-.549-.122.7.7,0,0,0-.586.223.733.733,0,0,0-.126.366h-.492a.906.906,0,0,1,.376-.807,1.546,1.546,0,0,1,.839-.227,1.708,1.708,0,0,1,.9.211.716.716,0,0,1,.343.656V-.539a.231.231,0,0,0,.034.132.162.162,0,0,0,.142.05q.035,0,.079,0t.094-.013v.39a1.469,1.469,0,0,1-.187.044,1.37,1.37,0,0,1-.176.009.434.434,0,0,1-.4-.193.746.746,0,0,1-.091-.29,1.342,1.342,0,0,1-.463.366,1.432,1.432,0,0,1-.665.155.989.989,0,0,1-.713-.265.881.881,0,0,1-.277-.664.855.855,0,0,1,.272-.677,1.3,1.3,0,0,1,.715-.3Zm1.67-2.4h.527V0h-.527Zm1.333,0h.527V0h-.527Zm2.625,1.1a1.431,1.431,0,0,1,.647.157,1.194,1.194,0,0,1,.478.406,1.4,1.4,0,0,1,.211.554,3.623,3.623,0,0,1,.047.691h-2.3a1.342,1.342,0,0,0,.226.766.755.755,0,0,0,.653.289.845.845,0,0,0,.659-.272.918.918,0,0,0,.2-.366h.519a1.092,1.092,0,0,1-.136.385,1.37,1.37,0,0,1-.259.347,1.229,1.229,0,0,1-.595.316,1.807,1.807,0,0,1-.431.047,1.321,1.321,0,0,1-.993-.426,1.659,1.659,0,0,1-.407-1.194,1.8,1.8,0,0,1,.41-1.228A1.353,1.353,0,0,1,37.046-3.208Zm.841,1.389a1.366,1.366,0,0,0-.149-.548.766.766,0,0,0-.724-.381.8.8,0,0,0-.609.262.991.991,0,0,0-.261.667Zm1.295-2.194h.533v.876h.5v.431h-.5V-.659a.222.222,0,0,0,.111.22.473.473,0,0,0,.205.032h.082q.044,0,.1-.007V0a1.177,1.177,0,0,1-.189.038,1.8,1.8,0,0,1-.212.012.572.572,0,0,1-.5-.189.84.84,0,0,1-.132-.491V-2.707h-.425v-.431h.425Z" transform="translate(4987 1432)" fill="#fff"/><path d="M.589-4.3h.589V0H.589ZM2.054-3.138h.5v.445a1.405,1.405,0,0,1,.472-.4,1.258,1.258,0,0,1,.554-.12.913.913,0,0,1,.9.466,1.654,1.654,0,0,1,.129.729V0H4.075V-1.978A1.071,1.071,0,0,0,3.99-2.44a.515.515,0,0,0-.51-.293,1.038,1.038,0,0,0-.308.038.792.792,0,0,0-.381.258.776.776,0,0,0-.171.321,2.159,2.159,0,0,0-.04.473V0H2.054ZM6.6-3.229a1.368,1.368,0,0,1,.863.258,1.235,1.235,0,0,1,.4.888H7.351a.946.946,0,0,0-.214-.482A.676.676,0,0,0,6.6-2.757a.741.741,0,0,0-.721.492,1.955,1.955,0,0,0-.141.788,1.483,1.483,0,0,0,.2.794.683.683,0,0,0,.627.322.686.686,0,0,0,.52-.2,1.1,1.1,0,0,0,.265-.549h.513A1.376,1.376,0,0,1,7.424-.2a1.371,1.371,0,0,1-.9.289,1.2,1.2,0,0,1-.981-.45,1.721,1.721,0,0,1-.366-1.124,1.893,1.893,0,0,1,.4-1.286A1.3,1.3,0,0,1,6.6-3.229ZM9.636-.34a.727.727,0,0,0,.719-.4,1.978,1.978,0,0,0,.195-.883,1.573,1.573,0,0,0-.141-.715.791.791,0,0,0-.768-.434.757.757,0,0,0-.7.369,1.711,1.711,0,0,0-.22.891,1.488,1.488,0,0,0,.22.835A.774.774,0,0,0,9.636-.34Zm.021-2.889a1.421,1.421,0,0,1,1.025.4A1.579,1.579,0,0,1,11.1-1.635a2.041,2.041,0,0,1-.369,1.254,1.335,1.335,0,0,1-1.146.5A1.293,1.293,0,0,1,8.558-.324,1.73,1.73,0,0,1,8.177-1.5a1.872,1.872,0,0,1,.4-1.26A1.347,1.347,0,0,1,9.656-3.229Zm2.071.091h.521v.445a1.753,1.753,0,0,1,.34-.337,1.022,1.022,0,0,1,.592-.179.931.931,0,0,1,.6.185.965.965,0,0,1,.234.311,1.14,1.14,0,0,1,.413-.374,1.152,1.152,0,0,1,.533-.122.872.872,0,0,1,.861.457,1.494,1.494,0,0,1,.123.662V0H15.4V-2.18a.508.508,0,0,0-.157-.431.62.62,0,0,0-.382-.117.759.759,0,0,0-.535.208.913.913,0,0,0-.224.694V0h-.536V-2.048a1.064,1.064,0,0,0-.076-.466.465.465,0,0,0-.448-.22A.773.773,0,0,0,12.5-2.5a1.134,1.134,0,0,0-.245.838V0h-.527Zm5,.015h.536V0h-.536Zm0-1.181h.536v.6h-.536Zm1.333,1.166h.5v.445a1.405,1.405,0,0,1,.472-.4,1.258,1.258,0,0,1,.554-.12.913.913,0,0,1,.9.466,1.654,1.654,0,0,1,.129.729V0H20.08V-1.978A1.071,1.071,0,0,0,20-2.44a.515.515,0,0,0-.51-.293,1.038,1.038,0,0,0-.308.038.792.792,0,0,0-.381.258.776.776,0,0,0-.171.321,2.159,2.159,0,0,0-.04.473V0h-.527ZM22.5-3.193a1.144,1.144,0,0,1,.645.182,1.448,1.448,0,0,1,.3.3v-.4h.486V-.255a2.1,2.1,0,0,1-.176.943,1.262,1.262,0,0,1-1.239.639,1.52,1.52,0,0,1-.853-.227.885.885,0,0,1-.387-.71h.536a.6.6,0,0,0,.152.325.777.777,0,0,0,.563.176.774.774,0,0,0,.794-.428,2.409,2.409,0,0,0,.1-.9,1.035,1.035,0,0,1-.381.357,1.267,1.267,0,0,1-.589.117,1.257,1.257,0,0,1-.892-.362,1.591,1.591,0,0,1-.382-1.2,1.812,1.812,0,0,1,.385-1.23A1.191,1.191,0,0,1,22.5-3.193Zm.949,1.611a1.308,1.308,0,0,0-.24-.864.77.77,0,0,0-.612-.281.756.756,0,0,0-.762.521,2.045,2.045,0,0,0-.108.729,1.3,1.3,0,0,0,.215.807.7.7,0,0,0,.579.277.812.812,0,0,0,.8-.513A1.654,1.654,0,0,0,23.452-1.582Z" transform="translate(4987 1470)" fill="#fff"/><g transform="translate(4955 1374)" fill="rgba(255,255,255,0.2)" stroke="#fff" stroke-width="1"><rect width="22" height="22" rx="11" stroke="none"/><rect x="0.5" y="0.5" width="21" height="21" rx="10.5" fill="none"/></g><g transform="translate(4955 1412)" fill="rgba(255,255,255,0.2)" stroke="#fff" stroke-width="1"><rect width="22" height="22" rx="11" stroke="none"/><rect x="0.5" y="0.5" width="21" height="21" rx="10.5" fill="none"/></g><g transform="translate(4955 1450)" fill="rgba(255,255,255,0.2)" stroke="#fff" stroke-width="1"><rect width="22" height="22" rx="11" stroke="none"/><rect x="0.5" y="0.5" width="21" height="21" rx="10.5" fill="none"/></g><path d="M-8.225-1.852a1.568,1.568,0,0,0,.23.793,1.528,1.528,0,0,0,1.363.57,2.413,2.413,0,0,0,.8-.125.885.885,0,0,0,.7-.867.749.749,0,0,0-.293-.668,2.958,2.958,0,0,0-.93-.34l-.777-.176a3.52,3.52,0,0,1-1.078-.379,1.2,1.2,0,0,1-.547-1.074,1.654,1.654,0,0,1,.535-1.27,2.147,2.147,0,0,1,1.516-.5,2.632,2.632,0,0,1,1.533.436,1.572,1.572,0,0,1,.631,1.393h-.73a1.438,1.438,0,0,0-.25-.707,1.452,1.452,0,0,0-1.207-.449,1.4,1.4,0,0,0-.988.289.9.9,0,0,0-.3.672.656.656,0,0,0,.352.617,5.159,5.159,0,0,0,1.043.313l.8.184a2.465,2.465,0,0,1,.9.363,1.36,1.36,0,0,1,.547,1.168A1.458,1.458,0,0,1-5.074-.242a3.105,3.105,0,0,1-1.611.41A2.41,2.41,0,0,1-8.361-.379a1.845,1.845,0,0,1-.594-1.473Zm6.477-2.426a1.908,1.908,0,0,1,.863.209,1.592,1.592,0,0,1,.637.541,1.866,1.866,0,0,1,.281.738A4.83,4.83,0,0,1,.1-1.867H-2.971a1.789,1.789,0,0,0,.3,1.021A1.007,1.007,0,0,0-1.8-.461,1.126,1.126,0,0,0-.92-.824a1.225,1.225,0,0,0,.266-.488H.037A1.456,1.456,0,0,1-.145-.8,1.827,1.827,0,0,1-.49-.336a1.639,1.639,0,0,1-.793.422,2.409,2.409,0,0,1-.574.063A1.762,1.762,0,0,1-3.182-.42a2.211,2.211,0,0,1-.543-1.592,2.4,2.4,0,0,1,.547-1.637A1.8,1.8,0,0,1-1.748-4.277ZM-.627-2.426a1.822,1.822,0,0,0-.2-.73,1.021,1.021,0,0,0-.965-.508,1.07,1.07,0,0,0-.812.35,1.321,1.321,0,0,0-.348.889ZM.959-4.184h.668v.594a1.874,1.874,0,0,1,.629-.527,1.677,1.677,0,0,1,.738-.16,1.217,1.217,0,0,1,1.2.621,2.205,2.205,0,0,1,.172.973V0H3.654V-2.637a1.428,1.428,0,0,0-.113-.617.687.687,0,0,0-.68-.391,1.384,1.384,0,0,0-.41.051,1.056,1.056,0,0,0-.508.344,1.035,1.035,0,0,0-.229.428,2.879,2.879,0,0,0-.053.631V0h-.7ZM5.854-2.043A2.074,2.074,0,0,0,6.139-.918a1,1,0,0,0,.914.453.963.963,0,0,0,.8-.42A1.983,1.983,0,0,0,8.17-2.09a1.782,1.782,0,0,0-.324-1.174,1.011,1.011,0,0,0-.8-.381,1.057,1.057,0,0,0-.861.406A1.861,1.861,0,0,0,5.854-2.043ZM6.912-4.258a1.488,1.488,0,0,1,.8.2,1.89,1.89,0,0,1,.426.41V-5.758h.676V0H8.186V-.582A1.521,1.521,0,0,1,7.6-.023a1.666,1.666,0,0,1-.77.172A1.558,1.558,0,0,1,5.623-.439,2.3,2.3,0,0,1,5.111-2a2.7,2.7,0,0,1,.467-1.584A1.528,1.528,0,0,1,6.912-4.258Z" transform="translate(5026 1149)" fill="#fff"/><g transform="translate(5010 1102)" fill="rgba(255,255,255,0.2)" stroke="#fff" stroke-width="1"><rect width="31" height="31" rx="5" stroke="none"/><rect x="0.5" y="0.5" width="30" height="30" rx="4.5" fill="none"/></g><path d="M-11.621-3.109a1.506,1.506,0,0,0,.865-.219.891.891,0,0,0,.318-.789.847.847,0,0,0-.445-.836,1.455,1.455,0,0,0-.637-.117h-1.9v1.961ZM-14.2-5.738h2.656a2.649,2.649,0,0,1,1.082.191,1.355,1.355,0,0,1,.809,1.355,1.524,1.524,0,0,1-.213.844,1.538,1.538,0,0,1-.6.527,1.174,1.174,0,0,1,.506.359,1.291,1.291,0,0,1,.189.723l.027.77A2.366,2.366,0,0,0-9.68-.48a.48.48,0,0,0,.25.352V0h-.953a.717.717,0,0,1-.062-.191,3.674,3.674,0,0,1-.039-.453l-.047-.957a.8.8,0,0,0-.418-.754,1.729,1.729,0,0,0-.7-.105h-1.77V0H-14.2Zm7.332,1.461A1.908,1.908,0,0,1-6-4.068a1.592,1.592,0,0,1,.637.541,1.866,1.866,0,0,1,.281.738,4.83,4.83,0,0,1,.063.922H-8.086a1.789,1.789,0,0,0,.3,1.021,1.007,1.007,0,0,0,.871.385,1.126,1.126,0,0,0,.879-.363,1.225,1.225,0,0,0,.266-.488h.691A1.456,1.456,0,0,1-5.26-.8a1.827,1.827,0,0,1-.346.463A1.639,1.639,0,0,1-6.4.086a2.409,2.409,0,0,1-.574.063A1.762,1.762,0,0,1-8.3-.42,2.211,2.211,0,0,1-8.84-2.012a2.4,2.4,0,0,1,.547-1.637A1.8,1.8,0,0,1-6.863-4.277Zm1.121,1.852a1.822,1.822,0,0,0-.2-.73,1.021,1.021,0,0,0-.965-.508,1.07,1.07,0,0,0-.812.35,1.321,1.321,0,0,0-.348.889Zm2.039.391a2.383,2.383,0,0,0,.152.91.968.968,0,0,0,.965.652A1.009,1.009,0,0,0-1.574-1.16a2.624,2.624,0,0,0,.152-.969,2.158,2.158,0,0,0-.168-.906,1.016,1.016,0,0,0-1-.621.984.984,0,0,0-.783.4A1.906,1.906,0,0,0-3.7-2.035Zm1.039-2.242a1.435,1.435,0,0,1,.875.262,1.552,1.552,0,0,1,.375.414v-.582h.668V1.668h-.707V-.48a1.262,1.262,0,0,1-.486.447,1.631,1.631,0,0,1-.775.166,1.654,1.654,0,0,1-1.2-.523,2.158,2.158,0,0,1-.527-1.594,2.632,2.632,0,0,1,.494-1.648A1.54,1.54,0,0,1-2.664-4.277ZM1-4.184v2.777a1.171,1.171,0,0,0,.1.523.709.709,0,0,0,.7.375.988.988,0,0,0,1-.656,2.6,2.6,0,0,0,.145-.965V-4.184h.7V0H2.98l.008-.617a1.418,1.418,0,0,1-.34.4,1.5,1.5,0,0,1-.977.328,1.26,1.26,0,0,1-1.219-.6A1.78,1.78,0,0,1,.277-1.34V-4.184Zm5.488-.094a1.908,1.908,0,0,1,.863.209,1.592,1.592,0,0,1,.637.541,1.866,1.866,0,0,1,.281.738,4.83,4.83,0,0,1,.063.922H5.262a1.789,1.789,0,0,0,.3,1.021,1.007,1.007,0,0,0,.871.385,1.126,1.126,0,0,0,.879-.363,1.225,1.225,0,0,0,.266-.488H8.27A1.456,1.456,0,0,1,8.088-.8a1.827,1.827,0,0,1-.346.463,1.639,1.639,0,0,1-.793.422,2.409,2.409,0,0,1-.574.063A1.762,1.762,0,0,1,5.051-.42a2.211,2.211,0,0,1-.543-1.592,2.4,2.4,0,0,1,.547-1.637A1.8,1.8,0,0,1,6.484-4.277ZM7.605-2.426a1.822,1.822,0,0,0-.2-.73,1.021,1.021,0,0,0-.965-.508,1.07,1.07,0,0,0-.812.35,1.321,1.321,0,0,0-.348.889Zm2,1.113a1.023,1.023,0,0,0,.176.539,1.1,1.1,0,0,0,.922.34,1.36,1.36,0,0,0,.688-.17.564.564,0,0,0,.3-.525.449.449,0,0,0-.238-.41,2.833,2.833,0,0,0-.6-.2l-.559-.141a2.725,2.725,0,0,1-.789-.3.887.887,0,0,1-.453-.789,1.206,1.206,0,0,1,.428-.961,1.706,1.706,0,0,1,1.15-.367,1.6,1.6,0,0,1,1.363.555,1.2,1.2,0,0,1,.254.758h-.664a.813.813,0,0,0-.168-.434,1.071,1.071,0,0,0-.84-.277,1,1,0,0,0-.6.152.477.477,0,0,0-.205.4.5.5,0,0,0,.27.438,1.62,1.62,0,0,0,.461.172l.465.113a3.594,3.594,0,0,1,1.016.355.941.941,0,0,1,.41.848,1.292,1.292,0,0,1-.424.965A1.8,1.8,0,0,1,10.672.16,1.732,1.732,0,0,1,9.35-.264a1.6,1.6,0,0,1-.416-1.049Zm3.723-4.039h.711v1.168h.668v.574h-.668v2.73a.3.3,0,0,0,.148.293.631.631,0,0,0,.273.043l.109,0q.059,0,.137-.01V0a1.57,1.57,0,0,1-.252.051,2.4,2.4,0,0,1-.283.016.763.763,0,0,1-.668-.252,1.12,1.12,0,0,1-.176-.654v-2.77h-.566v-.574h.566Z" transform="translate(5083 1149)" fill="#fff"/><g transform="translate(5067 1102)" fill="rgba(255,255,255,0.2)" stroke="#fff" stroke-width="1"><rect width="31" height="31" rx="5" stroke="none"/><rect x="0.5" y="0.5" width="30" height="30" rx="4.5" fill="none"/></g><path d="M-7.225-5.738v.684H-9.158V0h-.789V-5.055h-1.934v-.684ZM-5.834-.453a.97.97,0,0,0,.959-.529,2.637,2.637,0,0,0,.26-1.178A2.1,2.1,0,0,0-4.8-3.113a1.055,1.055,0,0,0-1.023-.578,1.009,1.009,0,0,0-.937.492,2.281,2.281,0,0,0-.293,1.188A1.984,1.984,0,0,0-6.764-.9,1.032,1.032,0,0,0-5.834-.453ZM-5.807-4.3a1.894,1.894,0,0,1,1.367.539A2.105,2.105,0,0,1-3.881-2.18,2.721,2.721,0,0,1-4.373-.508,1.78,1.78,0,0,1-5.9.152,1.724,1.724,0,0,1-7.271-.432,2.307,2.307,0,0,1-7.779-2a2.5,2.5,0,0,1,.535-1.68A1.8,1.8,0,0,1-5.807-4.3ZM-1.279-.473A1,1,0,0,0-.461-.885,1.961,1.961,0,0,0-.135-2.117a2.3,2.3,0,0,0-.145-.859,1,1,0,0,0-1-.691,1,1,0,0,0-1,.73,2.9,2.9,0,0,0-.145.992,2.1,2.1,0,0,0,.145.824A1,1,0,0,0-1.279-.473ZM-3.1-4.164h.684v.555a1.707,1.707,0,0,1,.461-.441,1.484,1.484,0,0,1,.836-.234A1.572,1.572,0,0,1,.088-3.74a2.233,2.233,0,0,1,.5,1.557A2.39,2.39,0,0,1-.131-.23,1.615,1.615,0,0,1-1.186.141a1.432,1.432,0,0,1-.793-.207,1.827,1.827,0,0,1-.418-.4V1.668h-.7Zm7.43-.02v2.777a1.171,1.171,0,0,0,.1.523.709.709,0,0,0,.7.375.988.988,0,0,0,1-.656,2.6,2.6,0,0,0,.145-.965V-4.184h.7V0H6.314l.008-.617a1.418,1.418,0,0,1-.34.4,1.5,1.5,0,0,1-.977.328,1.26,1.26,0,0,1-1.219-.6,1.78,1.78,0,0,1-.176-.855V-4.184ZM9.842-.473a1,1,0,0,0,.818-.412,1.961,1.961,0,0,0,.326-1.232,2.3,2.3,0,0,0-.145-.859,1,1,0,0,0-1-.691,1,1,0,0,0-1,.73,2.9,2.9,0,0,0-.145.992,2.1,2.1,0,0,0,.145.824A1,1,0,0,0,9.842-.473ZM8.021-4.164h.684v.555a1.707,1.707,0,0,1,.461-.441A1.484,1.484,0,0,1,10-4.285a1.572,1.572,0,0,1,1.207.545,2.233,2.233,0,0,1,.5,1.557A2.39,2.39,0,0,1,10.99-.23,1.615,1.615,0,0,1,9.936.141a1.432,1.432,0,0,1-.793-.207,1.827,1.827,0,0,1-.418-.4V1.668h-.7Z" transform="translate(5141 1149)" fill="#fff"/><g transform="translate(5125 1102)" fill="rgba(255,255,255,0.2)" stroke="#fff" stroke-width="1"><rect width="31" height="31" rx="5" stroke="none"/><rect x="0.5" y="0.5" width="30" height="30" rx="4.5" fill="none"/></g><path d="M.914-8.637h1.8v7.084H7V0H.914ZM11.631-3.105a1.815,1.815,0,0,1-.319.161,2.671,2.671,0,0,1-.442.114l-.375.07a2.421,2.421,0,0,0-.756.229.766.766,0,0,0-.387.709.747.747,0,0,0,.237.618.893.893,0,0,0,.577.19,1.7,1.7,0,0,0,.993-.316,1.349,1.349,0,0,0,.472-1.154Zm-1.014-.779a2.607,2.607,0,0,0,.662-.146.5.5,0,0,0,.357-.475.563.563,0,0,0-.272-.542,1.7,1.7,0,0,0-.8-.149,1.042,1.042,0,0,0-.838.293,1.218,1.218,0,0,0-.234.586H7.881A2.451,2.451,0,0,1,8.35-5.7a2.727,2.727,0,0,1,2.273-.844,4.039,4.039,0,0,1,1.863.416,1.6,1.6,0,0,1,.814,1.57v2.93q0,.3.012.738a.928.928,0,0,0,.1.445.6.6,0,0,0,.246.193V0H11.842a1.86,1.86,0,0,1-.105-.363q-.029-.17-.047-.387a3.431,3.431,0,0,1-.8.639A2.4,2.4,0,0,1,9.674.2,2.1,2.1,0,0,1,8.241-.3a1.766,1.766,0,0,1-.565-1.4A1.822,1.822,0,0,1,8.584-3.4a4.033,4.033,0,0,1,1.465-.41Zm5.467,1.846a1.115,1.115,0,0,0,.229.633,1.545,1.545,0,0,0,1.148.334,1.751,1.751,0,0,0,.782-.146.469.469,0,0,0,.29-.439.474.474,0,0,0-.234-.428,9.535,9.535,0,0,0-1.74-.5,3.624,3.624,0,0,1-1.529-.674,1.461,1.461,0,0,1-.445-1.148,1.992,1.992,0,0,1,.694-1.521,2.789,2.789,0,0,1,1.954-.636,3.585,3.585,0,0,1,1.948.478,2.046,2.046,0,0,1,.864,1.649h-1.67a.988.988,0,0,0-.182-.51,1.143,1.143,0,0,0-.937-.34,1.347,1.347,0,0,0-.776.17.489.489,0,0,0-.231.4.436.436,0,0,0,.246.416,10.653,10.653,0,0,0,1.74.463,3.2,3.2,0,0,1,1.494.709,1.61,1.61,0,0,1,.492,1.2,1.941,1.941,0,0,1-.706,1.55,3.317,3.317,0,0,1-2.183.6,3.286,3.286,0,0,1-2.224-.636,2.068,2.068,0,0,1-.718-1.62Zm4.717-3.1V-6.328h.891V-8.109h1.652v1.781h1.037v1.189H23.344v3.375a.76.76,0,0,0,.1.489,1.1,1.1,0,0,0,.609.1l.161,0q.085,0,.167-.009V.059L23.59.088a2.123,2.123,0,0,1-1.617-.41,1.221,1.221,0,0,1-.281-.885V-5.139ZM30.844-3.264h2.191l-1.078-3.4Zm.111-5.373h2.039L36.053,0H34.1l-.557-1.775H30.357L29.76,0H27.873ZM40.828-4.1a1.482,1.482,0,0,0-.24-.645,1.007,1.007,0,0,0-.873-.387,1.15,1.15,0,0,0-1.154.838A3.5,3.5,0,0,0,38.4-3.105a3.221,3.221,0,0,0,.164,1.131,1.114,1.114,0,0,0,1.125.8.992.992,0,0,0,.832-.316,1.575,1.575,0,0,0,.3-.82h1.705a2.794,2.794,0,0,1-.551,1.441,2.677,2.677,0,0,1-2.326,1.1,2.721,2.721,0,0,1-2.268-.914,3.7,3.7,0,0,1-.727-2.373,3.753,3.753,0,0,1,.8-2.561,2.794,2.794,0,0,1,2.215-.914A3.335,3.335,0,0,1,41.634-6a2.507,2.507,0,0,1,.905,1.9Zm2.2-1.043V-6.328h.891V-8.109h1.652v1.781h1.037v1.189H45.574v3.375a.76.76,0,0,0,.1.489,1.1,1.1,0,0,0,.609.1l.161,0q.085,0,.167-.009V.059L45.82.088A2.123,2.123,0,0,1,44.2-.322a1.221,1.221,0,0,1-.281-.885V-5.139ZM49.4-7.148H47.707V-8.689H49.4Zm-1.693.762H49.4V0H47.707Zm6.176,5.209A1.324,1.324,0,0,0,55.008-1.7,2.426,2.426,0,0,0,55.4-3.182a2.413,2.413,0,0,0-.393-1.479,1.326,1.326,0,0,0-1.125-.519,1.334,1.334,0,0,0-1.128.519,2.4,2.4,0,0,0-.4,1.479,2.413,2.413,0,0,0,.4,1.482A1.331,1.331,0,0,0,53.883-1.178Zm3.27-2a3.7,3.7,0,0,1-.809,2.405,2.971,2.971,0,0,1-2.455,1,2.971,2.971,0,0,1-2.455-1,3.7,3.7,0,0,1-.809-2.405,3.727,3.727,0,0,1,.809-2.4,2.951,2.951,0,0,1,2.455-1.014,2.951,2.951,0,0,1,2.455,1.014A3.727,3.727,0,0,1,57.152-3.182Zm4.734-3.357a2.465,2.465,0,0,1,1.62.519,2.109,2.109,0,0,1,.63,1.72V0H62.426V-3.885a1.773,1.773,0,0,0-.135-.773.948.948,0,0,0-.937-.492,1.163,1.163,0,0,0-1.166.721,2.476,2.476,0,0,0-.164.973V0H58.359V-6.375h1.611v.932a2.835,2.835,0,0,1,.609-.709A2.118,2.118,0,0,1,61.887-6.539Zm5.092,4.5a1.115,1.115,0,0,0,.229.633,1.545,1.545,0,0,0,1.148.334,1.751,1.751,0,0,0,.782-.146.469.469,0,0,0,.29-.439.474.474,0,0,0-.234-.428,9.535,9.535,0,0,0-1.74-.5,3.624,3.624,0,0,1-1.529-.674,1.461,1.461,0,0,1-.445-1.148,1.992,1.992,0,0,1,.694-1.521,2.789,2.789,0,0,1,1.954-.636,3.585,3.585,0,0,1,1.948.478,2.046,2.046,0,0,1,.864,1.649H69.27a.988.988,0,0,0-.182-.51,1.143,1.143,0,0,0-.937-.34,1.347,1.347,0,0,0-.776.17.489.489,0,0,0-.231.4.436.436,0,0,0,.246.416,10.653,10.653,0,0,0,1.74.463,3.2,3.2,0,0,1,1.494.709,1.61,1.61,0,0,1,.492,1.2,1.941,1.941,0,0,1-.706,1.55,3.317,3.317,0,0,1-2.183.6A3.286,3.286,0,0,1,66-.419a2.068,2.068,0,0,1-.718-1.62Z" transform="translate(4955 1354)" fill="#fff"/><path d="M6.639-8.637h2.6V0H7.553V-5.842q0-.252.006-.706t.006-.7L5.93,0H4.178L2.555-7.248q0,.246.006.7t.006.706V0H.885V-8.637H3.51L5.08-1.846Zm4.395,9.861.211.012a2.632,2.632,0,0,0,.469-.018.842.842,0,0,0,.375-.135A.9.9,0,0,0,12.36.668a.879.879,0,0,0,.1-.387L10.119-6.387h1.857l1.395,4.711,1.318-4.711h1.775L14.273-.105a8.82,8.82,0,0,1-1,2.253,1.9,1.9,0,0,1-1.477.437q-.223,0-.357,0t-.4-.021Zm9.51-5.473a4.743,4.743,0,0,1,1.213-3.486A3.614,3.614,0,0,1,24.439-8.8a3.629,3.629,0,0,1,3.188,1.43,3.1,3.1,0,0,1,.6,1.611h-1.8a2.438,2.438,0,0,0-.451-.937A1.835,1.835,0,0,0,24.51-7.26a1.809,1.809,0,0,0-1.553.794,3.817,3.817,0,0,0-.568,2.247,3.35,3.35,0,0,0,.6,2.177,1.9,1.9,0,0,0,1.526.724,1.746,1.746,0,0,0,1.447-.621,2.7,2.7,0,0,0,.457-1h1.787a3.877,3.877,0,0,1-1.2,2.3,3.51,3.51,0,0,1-2.47.885,3.725,3.725,0,0,1-2.93-1.2A4.784,4.784,0,0,1,20.543-4.248ZM32.971-3.105a1.815,1.815,0,0,1-.319.161,2.671,2.671,0,0,1-.442.114l-.375.07a2.421,2.421,0,0,0-.756.229.766.766,0,0,0-.387.709.747.747,0,0,0,.237.618.893.893,0,0,0,.577.19A1.7,1.7,0,0,0,32.5-1.33a1.349,1.349,0,0,0,.472-1.154Zm-1.014-.779a2.607,2.607,0,0,0,.662-.146.5.5,0,0,0,.357-.475.563.563,0,0,0-.272-.542,1.7,1.7,0,0,0-.8-.149,1.042,1.042,0,0,0-.838.293,1.218,1.218,0,0,0-.234.586H29.221A2.451,2.451,0,0,1,29.689-5.7a2.727,2.727,0,0,1,2.273-.844,4.039,4.039,0,0,1,1.863.416,1.6,1.6,0,0,1,.814,1.57v2.93q0,.3.012.738a.928.928,0,0,0,.1.445A.6.6,0,0,0,35-.246V0H33.182a1.86,1.86,0,0,1-.105-.363q-.029-.17-.047-.387a3.431,3.431,0,0,1-.8.639A2.4,2.4,0,0,1,31.014.2a2.1,2.1,0,0,1-1.433-.5,1.766,1.766,0,0,1-.565-1.4A1.822,1.822,0,0,1,29.924-3.4a4.033,4.033,0,0,1,1.465-.41Zm7.635-2.654q.047,0,.079,0l.144.009v1.711q-.158-.018-.281-.023t-.2-.006a1.385,1.385,0,0,0-1.354.656,2.553,2.553,0,0,0-.193,1.137V0H36.105V-6.387H37.7v1.113a3.531,3.531,0,0,1,.674-.873A1.834,1.834,0,0,1,39.592-6.539Zm3.557,0a2.06,2.06,0,0,1,1.031.255,2.028,2.028,0,0,1,.732.706V-8.625h1.693V0H44.982V-.885a2.355,2.355,0,0,1-.814.826A2.287,2.287,0,0,1,43.031.2a2.373,2.373,0,0,1-1.884-.905,3.476,3.476,0,0,1-.765-2.323A4,4,0,0,1,41.136-5.6,2.45,2.45,0,0,1,43.148-6.539Zm.363,5.332a1.233,1.233,0,0,0,1.078-.527A2.33,2.33,0,0,0,44.959-3.1a2.094,2.094,0,0,0-.592-1.676,1.274,1.274,0,0,0-.844-.3,1.173,1.173,0,0,0-1.075.554,2.565,2.565,0,0,0-.343,1.374,2.542,2.542,0,0,0,.349,1.415A1.179,1.179,0,0,0,43.512-1.207Z" transform="translate(4952 1177)" fill="#fff"/><path d="M7.3-7.107H2.73v1.834h4.2v1.5H2.73v2.221H7.512V0H.967V-8.637H7.3Zm6.48,1.219a1.169,1.169,0,0,0-.354-.961,1.538,1.538,0,0,0-.993-.287H10.752v2.543h1.682a1.458,1.458,0,0,0,.993-.311A1.244,1.244,0,0,0,13.781-5.889ZM15.568-5.9a2.651,2.651,0,0,1-.773,2.162,3.406,3.406,0,0,1-2.209.633H10.752V0H8.959V-8.637h3.762a3.064,3.064,0,0,1,2.074.668A2.588,2.588,0,0,1,15.568-5.9ZM18.4-3.264H20.59l-1.078-3.4Zm.111-5.373h2.039L23.607,0H21.65l-.557-1.775H17.912L17.314,0H15.428Zm10.02,0h2.045L27.686-3.246V0h-1.8V-3.246L22.893-8.637H25.02l1.793,3.762Z" transform="translate(4976 1079)" fill="#fff"/><path d="M3.277-3.109a1.506,1.506,0,0,0,.865-.219.89.89,0,0,0,.318-.789.847.847,0,0,0-.445-.836,1.455,1.455,0,0,0-.637-.117H1.48v1.961ZM.7-5.738H3.359a2.649,2.649,0,0,1,1.082.191A1.355,1.355,0,0,1,5.25-4.191a1.524,1.524,0,0,1-.213.844,1.538,1.538,0,0,1-.6.527,1.174,1.174,0,0,1,.506.359,1.291,1.291,0,0,1,.189.723l.027.77a2.366,2.366,0,0,0,.055.488.48.48,0,0,0,.25.352V0H4.516a.717.717,0,0,1-.062-.191,3.674,3.674,0,0,1-.039-.453L4.367-1.6a.8.8,0,0,0-.418-.754,1.729,1.729,0,0,0-.7-.105H1.48V0H.7ZM7.953-.453a.97.97,0,0,0,.959-.529,2.637,2.637,0,0,0,.26-1.178,2.1,2.1,0,0,0-.187-.953,1.055,1.055,0,0,0-1.023-.578,1.009,1.009,0,0,0-.937.492A2.281,2.281,0,0,0,6.73-2.012,1.984,1.984,0,0,0,7.023-.9,1.032,1.032,0,0,0,7.953-.453ZM7.98-4.3a1.894,1.894,0,0,1,1.367.539A2.105,2.105,0,0,1,9.906-2.18,2.721,2.721,0,0,1,9.414-.508a1.78,1.78,0,0,1-1.527.66A1.724,1.724,0,0,1,6.516-.432,2.307,2.307,0,0,1,6.008-2a2.5,2.5,0,0,1,.535-1.68A1.8,1.8,0,0,1,7.98-4.3Zm2.707-1.453h.684v2.082a1.559,1.559,0,0,1,.551-.459,1.549,1.549,0,0,1,.7-.158,1.63,1.63,0,0,1,1.268.537,2.288,2.288,0,0,1,.486,1.584,2.717,2.717,0,0,1-.48,1.648,1.559,1.559,0,0,1-1.332.656,1.365,1.365,0,0,1-.8-.23,1.943,1.943,0,0,1-.418-.437V0h-.648Zm1.828,5.27a.939.939,0,0,0,.854-.453,2.231,2.231,0,0,0,.283-1.2,1.962,1.962,0,0,0-.283-1.094.933.933,0,0,0-.834-.434,1.163,1.163,0,0,0-.842.355,1.6,1.6,0,0,0-.361,1.172,2.59,2.59,0,0,0,.148.957A1.026,1.026,0,0,0,12.516-.488Zm4.418-3.789a1.908,1.908,0,0,1,.863.209,1.592,1.592,0,0,1,.637.541,1.866,1.866,0,0,1,.281.738,4.83,4.83,0,0,1,.063.922H15.711a1.789,1.789,0,0,0,.3,1.021,1.007,1.007,0,0,0,.871.385,1.126,1.126,0,0,0,.879-.363,1.225,1.225,0,0,0,.266-.488h.691a1.456,1.456,0,0,1-.182.514,1.827,1.827,0,0,1-.346.463A1.639,1.639,0,0,1,17.4.086a2.409,2.409,0,0,1-.574.063A1.762,1.762,0,0,1,15.5-.42a2.211,2.211,0,0,1-.543-1.592A2.4,2.4,0,0,1,15.5-3.648,1.8,1.8,0,0,1,16.934-4.277Zm1.121,1.852a1.822,1.822,0,0,0-.2-.73,1.021,1.021,0,0,0-.965-.508,1.07,1.07,0,0,0-.812.35,1.321,1.321,0,0,0-.348.889ZM19.66-4.184h.668v.723a1.6,1.6,0,0,1,.4-.514,1.043,1.043,0,0,1,.738-.3l.066,0,.16.016v.742a1.05,1.05,0,0,0-.115-.016q-.053,0-.115,0a1,1,0,0,0-.816.342,1.193,1.193,0,0,0-.285.787V0h-.7Zm2.785-1.168h.711v1.168h.668v.574h-.668v2.73a.3.3,0,0,0,.148.293.631.631,0,0,0,.273.043l.109,0q.059,0,.137-.01V0a1.57,1.57,0,0,1-.252.051,2.4,2.4,0,0,1-.283.016.763.763,0,0,1-.668-.252,1.12,1.12,0,0,1-.176-.654v-2.77h-.566v-.574h.566Zm4.4-.387h.777V-.684h2.906V0H26.844Zm4.895,4.625a.579.579,0,0,0,.223.48.826.826,0,0,0,.527.176,1.6,1.6,0,0,0,.719-.172.967.967,0,0,0,.586-.934v-.566a1.2,1.2,0,0,1-.332.137,2.829,2.829,0,0,1-.4.078l-.426.055a1.628,1.628,0,0,0-.574.16A.624.624,0,0,0,31.738-1.113Zm1.7-1.422a.382.382,0,0,0,.324-.2.618.618,0,0,0,.047-.27.571.571,0,0,0-.256-.521,1.373,1.373,0,0,0-.732-.162.931.931,0,0,0-.781.3.977.977,0,0,0-.168.488h-.656a1.208,1.208,0,0,1,.5-1.076,2.061,2.061,0,0,1,1.119-.3,2.277,2.277,0,0,1,1.2.281.954.954,0,0,1,.457.875v2.41a.309.309,0,0,0,.045.176.217.217,0,0,0,.189.066q.047,0,.105-.006T34.961-.5V.02a1.958,1.958,0,0,1-.25.059,1.827,1.827,0,0,1-.234.012.578.578,0,0,1-.527-.258,1,1,0,0,1-.121-.387,1.789,1.789,0,0,1-.617.488,1.909,1.909,0,0,1-.887.207,1.319,1.319,0,0,1-.951-.354A1.174,1.174,0,0,1,31-1.1a1.14,1.14,0,0,1,.363-.9,1.728,1.728,0,0,1,.953-.395Zm2.207-1.648h.668v.594a1.874,1.874,0,0,1,.629-.527,1.677,1.677,0,0,1,.738-.16,1.217,1.217,0,0,1,1.2.621,2.205,2.205,0,0,1,.172.973V0h-.715V-2.637a1.428,1.428,0,0,0-.113-.617.687.687,0,0,0-.68-.391,1.384,1.384,0,0,0-.41.051,1.056,1.056,0,0,0-.508.344,1.035,1.035,0,0,0-.229.428,2.879,2.879,0,0,0-.053.631V0h-.7Zm5.926-.074a1.525,1.525,0,0,1,.859.242,1.93,1.93,0,0,1,.406.4v-.527h.648v3.8A2.806,2.806,0,0,1,43.254.918,1.683,1.683,0,0,1,41.6,1.77a2.027,2.027,0,0,1-1.137-.3A1.181,1.181,0,0,1,39.949.52h.715a.8.8,0,0,0,.2.434,1.036,1.036,0,0,0,.75.234,1.032,1.032,0,0,0,1.059-.57,3.212,3.212,0,0,0,.137-1.2,1.38,1.38,0,0,1-.508.477,1.689,1.689,0,0,1-.785.156A1.676,1.676,0,0,1,40.33-.432a2.122,2.122,0,0,1-.51-1.6,2.417,2.417,0,0,1,.514-1.641A1.588,1.588,0,0,1,41.574-4.258ZM42.84-2.109a1.744,1.744,0,0,0-.32-1.152,1.026,1.026,0,0,0-.816-.375,1.008,1.008,0,0,0-1.016.7,2.726,2.726,0,0,0-.145.973A1.727,1.727,0,0,0,40.83-.893a.927.927,0,0,0,.771.369,1.083,1.083,0,0,0,1.066-.684A2.2,2.2,0,0,0,42.84-2.109Zm2.152.066a2.074,2.074,0,0,0,.285,1.125,1,1,0,0,0,.914.453.963.963,0,0,0,.8-.42,1.983,1.983,0,0,0,.314-1.205,1.782,1.782,0,0,0-.324-1.174,1.011,1.011,0,0,0-.8-.381,1.057,1.057,0,0,0-.861.406A1.861,1.861,0,0,0,44.992-2.043Zm1.059-2.215a1.488,1.488,0,0,1,.8.2,1.89,1.89,0,0,1,.426.41V-5.758h.676V0h-.633V-.582a1.521,1.521,0,0,1-.582.559,1.666,1.666,0,0,1-.77.172,1.558,1.558,0,0,1-1.211-.588A2.3,2.3,0,0,1,44.25-2a2.7,2.7,0,0,1,.467-1.584A1.528,1.528,0,0,1,46.051-4.258Zm4.605,3.8a.97.97,0,0,0,.959-.529,2.637,2.637,0,0,0,.26-1.178,2.1,2.1,0,0,0-.187-.953,1.055,1.055,0,0,0-1.023-.578,1.009,1.009,0,0,0-.937.492,2.281,2.281,0,0,0-.293,1.188A1.984,1.984,0,0,0,49.727-.9,1.032,1.032,0,0,0,50.656-.453ZM50.684-4.3a1.894,1.894,0,0,1,1.367.539,2.105,2.105,0,0,1,.559,1.586,2.721,2.721,0,0,1-.492,1.672,1.78,1.78,0,0,1-1.527.66,1.724,1.724,0,0,1-1.371-.584A2.307,2.307,0,0,1,48.711-2a2.5,2.5,0,0,1,.535-1.68A1.8,1.8,0,0,1,50.684-4.3Zm2.762.121h.668v.594a1.874,1.874,0,0,1,.629-.527,1.677,1.677,0,0,1,.738-.16,1.217,1.217,0,0,1,1.2.621,2.205,2.205,0,0,1,.172.973V0h-.715V-2.637a1.428,1.428,0,0,0-.113-.617.687.687,0,0,0-.68-.391,1.384,1.384,0,0,0-.41.051,1.056,1.056,0,0,0-.508.344,1.035,1.035,0,0,0-.229.428,2.879,2.879,0,0,0-.053.631V0h-.7Z" transform="translate(4965 1285)" fill="#fff"/><path d="M2.271-4.421a1.764,1.764,0,0,1,1.269.431,1.521,1.521,0,0,1,.5.979H3.472a1.183,1.183,0,0,0-.385-.659,1.221,1.221,0,0,0-.81-.243,1.3,1.3,0,0,0-1.027.447A2.037,2.037,0,0,0,.858-2.1,1.989,1.989,0,0,0,1.211-.872,1.233,1.233,0,0,0,2.265-.4a1.113,1.113,0,0,0,.981-.5,1.883,1.883,0,0,0,.267-.686h.568a1.942,1.942,0,0,1-.5,1.14A1.793,1.793,0,0,1,2.194.111,1.825,1.825,0,0,1,.935-.343,2.366,2.366,0,0,1,.264-2.2a2.369,2.369,0,0,1,.5-1.562A1.841,1.841,0,0,1,2.271-4.421ZM5.124-.835a.434.434,0,0,0,.167.36.619.619,0,0,0,.4.132,1.2,1.2,0,0,0,.539-.129.725.725,0,0,0,.439-.7V-1.6a.9.9,0,0,1-.249.1,2.122,2.122,0,0,1-.3.059L5.8-1.395a1.221,1.221,0,0,0-.431.12A.468.468,0,0,0,5.124-.835ZM6.4-1.9a.286.286,0,0,0,.243-.152.464.464,0,0,0,.035-.2.428.428,0,0,0-.192-.391,1.03,1.03,0,0,0-.549-.122.7.7,0,0,0-.586.223.733.733,0,0,0-.126.366H4.734a.906.906,0,0,1,.376-.807,1.546,1.546,0,0,1,.839-.227A1.708,1.708,0,0,1,6.85-3a.716.716,0,0,1,.343.656V-.539a.231.231,0,0,0,.034.132.162.162,0,0,0,.142.05q.035,0,.079,0t.094-.013v.39a1.469,1.469,0,0,1-.187.044,1.37,1.37,0,0,1-.176.009.434.434,0,0,1-.4-.193.746.746,0,0,1-.091-.29,1.342,1.342,0,0,1-.463.366,1.432,1.432,0,0,1-.665.155A.989.989,0,0,1,4.85-.16a.881.881,0,0,1-.277-.664A.855.855,0,0,1,4.846-1.5a1.3,1.3,0,0,1,.715-.3Zm1.67-1.236h.5V-2.6a1.2,1.2,0,0,1,.3-.385.782.782,0,0,1,.554-.227l.05,0,.12.012v.557a.788.788,0,0,0-.086-.012q-.04,0-.086,0a.753.753,0,0,0-.612.256A.9.9,0,0,0,8.6-1.8V0H8.071Zm2.317,1.605a1.555,1.555,0,0,0,.214.844.749.749,0,0,0,.686.34.722.722,0,0,0,.6-.315,1.487,1.487,0,0,0,.236-.9,1.336,1.336,0,0,0-.243-.88.759.759,0,0,0-.6-.286.793.793,0,0,0-.646.3A1.4,1.4,0,0,0,10.389-1.532Zm.794-1.661a1.116,1.116,0,0,1,.6.152,1.418,1.418,0,0,1,.319.308V-4.318h.507V0h-.475V-.437a1.141,1.141,0,0,1-.437.419,1.249,1.249,0,0,1-.577.129,1.169,1.169,0,0,1-.908-.441A1.724,1.724,0,0,1,9.832-1.5a2.025,2.025,0,0,1,.35-1.188A1.146,1.146,0,0,1,11.183-3.193ZM15.261-4.3h.589V0h-.589Zm1.465,1.166h.5v.445a1.405,1.405,0,0,1,.472-.4,1.258,1.258,0,0,1,.554-.12.913.913,0,0,1,.9.466,1.654,1.654,0,0,1,.129.729V0h-.536V-1.978a1.071,1.071,0,0,0-.085-.463.515.515,0,0,0-.51-.293,1.038,1.038,0,0,0-.308.038.792.792,0,0,0-.381.258.776.776,0,0,0-.171.321,2.159,2.159,0,0,0-.04.473V0h-.527Zm3.469-.478a.94.94,0,0,1,.114-.48.808.808,0,0,1,.712-.27l.1,0,.12.009v.48l-.119-.007h-.069q-.24,0-.287.125a2.462,2.462,0,0,0-.047.634h.521v.416h-.527V0h-.521V-2.707h-.437v-.416h.437ZM22.975-.34a.727.727,0,0,0,.719-.4,1.978,1.978,0,0,0,.195-.883,1.573,1.573,0,0,0-.141-.715.791.791,0,0,0-.768-.434.757.757,0,0,0-.7.369,1.711,1.711,0,0,0-.22.891,1.488,1.488,0,0,0,.22.835A.774.774,0,0,0,22.975-.34ZM23-3.229a1.421,1.421,0,0,1,1.025.4,1.579,1.579,0,0,1,.419,1.189A2.041,2.041,0,0,1,24.07-.381a1.335,1.335,0,0,1-1.146.5A1.293,1.293,0,0,1,21.9-.324,1.73,1.73,0,0,1,21.516-1.5a1.872,1.872,0,0,1,.4-1.26A1.347,1.347,0,0,1,23-3.229Zm2.086.091h.5V-2.6a1.2,1.2,0,0,1,.3-.385.782.782,0,0,1,.554-.227l.05,0,.12.012v.557a.788.788,0,0,0-.086-.012q-.04,0-.086,0a.753.753,0,0,0-.612.256.9.9,0,0,0-.214.59V0h-.527Zm1.983,0h.521v.445a1.753,1.753,0,0,1,.34-.337,1.022,1.022,0,0,1,.592-.179.931.931,0,0,1,.6.185.965.965,0,0,1,.234.311,1.14,1.14,0,0,1,.413-.374,1.152,1.152,0,0,1,.533-.122.872.872,0,0,1,.861.457,1.494,1.494,0,0,1,.123.662V0h-.548V-2.18a.508.508,0,0,0-.157-.431.62.62,0,0,0-.382-.117.759.759,0,0,0-.535.208.913.913,0,0,0-.224.694V0H28.9V-2.048a1.064,1.064,0,0,0-.076-.466.465.465,0,0,0-.448-.22.773.773,0,0,0-.543.231,1.134,1.134,0,0,0-.245.838V0h-.527Zm5.4,2.3a.434.434,0,0,0,.167.36.619.619,0,0,0,.4.132,1.2,1.2,0,0,0,.539-.129.725.725,0,0,0,.439-.7V-1.6a.9.9,0,0,1-.249.1,2.122,2.122,0,0,1-.3.059l-.319.041a1.221,1.221,0,0,0-.431.12A.468.468,0,0,0,32.467-.835ZM33.744-1.9a.286.286,0,0,0,.243-.152.464.464,0,0,0,.035-.2.428.428,0,0,0-.192-.391,1.03,1.03,0,0,0-.549-.122.7.7,0,0,0-.586.223.733.733,0,0,0-.126.366h-.492a.906.906,0,0,1,.376-.807,1.546,1.546,0,0,1,.839-.227,1.708,1.708,0,0,1,.9.211.716.716,0,0,1,.343.656V-.539a.231.231,0,0,0,.034.132.162.162,0,0,0,.142.05q.035,0,.079,0t.094-.013v.39A1.469,1.469,0,0,1,34.7.059a1.37,1.37,0,0,1-.176.009.434.434,0,0,1-.4-.193.746.746,0,0,1-.091-.29,1.342,1.342,0,0,1-.463.366,1.432,1.432,0,0,1-.665.155.989.989,0,0,1-.713-.265.881.881,0,0,1-.277-.664.855.855,0,0,1,.272-.677,1.3,1.3,0,0,1,.715-.3ZM35.5-4.014h.533v.876h.5v.431h-.5V-.659a.222.222,0,0,0,.111.22.473.473,0,0,0,.205.032h.082q.044,0,.1-.007V0a1.177,1.177,0,0,1-.189.038,1.8,1.8,0,0,1-.212.012.572.572,0,0,1-.5-.189A.84.84,0,0,1,35.5-.63V-2.707H35.08v-.431H35.5Zm1.562.891H37.6V0h-.536Zm0-1.181H37.6v.6h-.536ZM39.645-.34a.727.727,0,0,0,.719-.4,1.978,1.978,0,0,0,.195-.883,1.573,1.573,0,0,0-.141-.715.791.791,0,0,0-.768-.434.757.757,0,0,0-.7.369,1.711,1.711,0,0,0-.22.891,1.488,1.488,0,0,0,.22.835A.774.774,0,0,0,39.645-.34Zm.021-2.889a1.421,1.421,0,0,1,1.025.4,1.579,1.579,0,0,1,.419,1.189A2.041,2.041,0,0,1,40.74-.381a1.335,1.335,0,0,1-1.146.5,1.293,1.293,0,0,1-1.028-.438A1.73,1.73,0,0,1,38.186-1.5a1.872,1.872,0,0,1,.4-1.26A1.347,1.347,0,0,1,39.665-3.229Zm2.071.091h.5v.445a1.405,1.405,0,0,1,.472-.4,1.258,1.258,0,0,1,.554-.12.913.913,0,0,1,.9.466,1.654,1.654,0,0,1,.129.729V0h-.536V-1.978a1.071,1.071,0,0,0-.085-.463.515.515,0,0,0-.51-.293,1.038,1.038,0,0,0-.308.038.792.792,0,0,0-.381.258.776.776,0,0,0-.171.321,2.159,2.159,0,0,0-.04.473V0h-.527Z" transform="translate(4965 1208)" fill="#fff"/><path d="M3.246-8.391A2.479,2.479,0,0,1,5.6-7.049a6,6,0,0,1,.563,2.842,6.843,6.843,0,0,1-.51,2.83A2.5,2.5,0,0,1,3.24.229,2.417,2.417,0,0,1,.99-1.084,6.01,6.01,0,0,1,.375-4.025,7.267,7.267,0,0,1,.744-6.48,2.526,2.526,0,0,1,3.246-8.391ZM3.234-.732a1.5,1.5,0,0,0,1.307-.727,5.26,5.26,0,0,0,.486-2.707,6.688,6.688,0,0,0-.352-2.353,1.338,1.338,0,0,0-1.365-.923,1.427,1.427,0,0,0-1.362.876,6.049,6.049,0,0,0-.431,2.581,6.338,6.338,0,0,0,.275,2.063A1.5,1.5,0,0,0,3.234-.732ZM8.156-2.139A1.462,1.462,0,0,0,8.994-.891a2.022,2.022,0,0,0,.867.176,1.628,1.628,0,0,0,1.389-.6A2.147,2.147,0,0,0,11.7-2.637,1.731,1.731,0,0,0,11.165-4a1.861,1.861,0,0,0-1.286-.48,1.937,1.937,0,0,0-.935.211,2,2,0,0,0-.665.586l-.914-.053L8-8.25h4.359v1.02H8.795L8.438-4.9a2.621,2.621,0,0,1,.557-.334,2.826,2.826,0,0,1,1.084-.193,2.773,2.773,0,0,1,1.957.744,2.461,2.461,0,0,1,.8,1.887A3.237,3.237,0,0,1,12.1-.7,2.844,2.844,0,0,1,9.756.211,2.989,2.989,0,0,1,7.942-.366a2.289,2.289,0,0,1-.882-1.772ZM19.412-8.607H20.3L17.572,0h-.891ZM23.725,0a4.894,4.894,0,0,1,.448-1.887,3.629,3.629,0,0,1,1.521-1.459L26.818-4a5.3,5.3,0,0,0,1.061-.75,1.541,1.541,0,0,0,.48-1.113,1.554,1.554,0,0,0-.439-1.163,1.6,1.6,0,0,0-1.172-.431,1.531,1.531,0,0,0-1.5.82A2.937,2.937,0,0,0,25-5.414H23.93a3.766,3.766,0,0,1,.4-1.787,2.537,2.537,0,0,1,2.42-1.219,2.623,2.623,0,0,1,2.106.779,2.607,2.607,0,0,1,.665,1.734,2.358,2.358,0,0,1-.709,1.723,6.941,6.941,0,0,1-1.471,1.008l-.8.445a5.2,5.2,0,0,0-.9.6A2.2,2.2,0,0,0,24.9-1h4.582V0ZM33.99-2.971v-3.8L31.3-2.971ZM34.008,0V-2.051h-3.68V-3.082l3.844-5.332h.891v5.443H36.3v.92H35.063V0Z" transform="translate(4965 1267)" fill="#fff"/><path d="M2.637-8.607V-7.3l1.277-.445.234.65L2.871-6.68l.791,1.1-.58.416L2.314-6.3,1.541-5.162l-.6-.416.8-1.1L.457-7.1l.234-.65,1.266.457V-8.607Zm4.67,0V-7.3l1.277-.445.234.65L7.541-6.68l.791,1.1-.58.416L6.984-6.3,6.211-5.162l-.6-.416.8-1.1L5.127-7.1l.234-.65,1.266.457V-8.607Zm4.67,0V-7.3l1.277-.445.234.65-1.277.416L13-5.578l-.58.416L11.654-6.3l-.773,1.143-.6-.416.8-1.1L9.8-7.1l.234-.65,1.266.457V-8.607Zm4.67,0V-7.3l1.277-.445.234.65-1.277.416.791,1.1-.58.416L16.324-6.3l-.773,1.143-.6-.416.8-1.1L14.467-7.1l.234-.65,1.266.457V-8.607Zm8,0V-7.3l1.277-.445.234.65-1.277.416.791,1.1-.58.416L24.328-6.3l-.773,1.143-.6-.416.8-1.1L22.471-7.1l.234-.65,1.266.457V-8.607Zm4.67,0V-7.3L30.6-7.746l.234.65-1.277.416.791,1.1-.58.416L29-6.3l-.773,1.143-.6-.416.8-1.1L27.141-7.1l.234-.65,1.266.457V-8.607Zm4.67,0V-7.3l1.277-.445.234.65-1.277.416.791,1.1-.58.416L33.668-6.3l-.773,1.143-.6-.416.8-1.1L31.811-7.1l.234-.65,1.266.457V-8.607Zm4.67,0V-7.3l1.277-.445.234.65-1.277.416.791,1.1-.58.416L38.338-6.3l-.773,1.143-.6-.416.8-1.1L36.48-7.1l.234-.65,1.266.457V-8.607Zm8,0V-7.3l1.277-.445.234.65L46.9-6.68l.791,1.1-.58.416L46.342-6.3l-.773,1.143-.6-.416.8-1.1L44.484-7.1l.234-.65,1.266.457V-8.607Zm4.67,0V-7.3l1.277-.445.234.65-1.277.416.791,1.1-.58.416L51.012-6.3l-.773,1.143-.6-.416.8-1.1L49.154-7.1l.234-.65,1.266.457V-8.607Zm4.67,0V-7.3l1.277-.445.234.65-1.277.416.791,1.1-.58.416L55.682-6.3l-.773,1.143-.6-.416.8-1.1L53.824-7.1l.234-.65,1.266.457V-8.607Zm4.67,0V-7.3l1.277-.445.234.65-1.277.416.791,1.1-.58.416L60.352-6.3l-.773,1.143-.6-.416.8-1.1L58.494-7.1l.234-.65,1.266.457V-8.607Zm11.643.357v.92a9.8,9.8,0,0,0-1.075,1.365,13.843,13.843,0,0,0-1.187,2.1,14.336,14.336,0,0,0-.773,2q-.17.58-.439,1.869H67.676a14.359,14.359,0,0,1,1.758-4.781,15.136,15.136,0,0,1,1.688-2.408H66.48V-8.25Zm3.908-.176a2.318,2.318,0,0,1,1.96.729,2.46,2.46,0,0,1,.554,1.5H77.7a1.923,1.923,0,0,0-.3-.779A1.33,1.33,0,0,0,76.242-7.5a1.6,1.6,0,0,0-1.406.817,4.71,4.71,0,0,0-.58,2.341,2.293,2.293,0,0,1,.914-.8,2.636,2.636,0,0,1,1.125-.234,2.737,2.737,0,0,1,1.84.674,2.5,2.5,0,0,1,.785,2.01,3.049,3.049,0,0,1-.744,2.024,2.621,2.621,0,0,1-2.121.882,2.72,2.72,0,0,1-2.033-.894,4.284,4.284,0,0,1-.855-3.009,8.1,8.1,0,0,1,.381-2.654A2.7,2.7,0,0,1,76.225-8.426ZM76.148-.721a1.447,1.447,0,0,0,1.245-.56A2.163,2.163,0,0,0,77.807-2.6a2.259,2.259,0,0,0-.369-1.228A1.463,1.463,0,0,0,76.1-4.412a1.749,1.749,0,0,0-1.192.451A1.716,1.716,0,0,0,74.391-2.6a1.982,1.982,0,0,0,.466,1.339A1.613,1.613,0,0,0,76.148-.721Zm4.723-1.418a1.462,1.462,0,0,0,.838,1.248,2.022,2.022,0,0,0,.867.176,1.628,1.628,0,0,0,1.389-.6,2.147,2.147,0,0,0,.451-1.324A1.731,1.731,0,0,0,83.88-4a1.861,1.861,0,0,0-1.286-.48,1.937,1.937,0,0,0-.935.211,2,2,0,0,0-.665.586l-.914-.053.639-4.518h4.359v1.02H81.51L81.152-4.9a2.621,2.621,0,0,1,.557-.334,2.826,2.826,0,0,1,1.084-.193,2.773,2.773,0,0,1,1.957.744,2.461,2.461,0,0,1,.8,1.887,3.237,3.237,0,0,1-.735,2.1,2.844,2.844,0,0,1-2.347.908,2.989,2.989,0,0,1-1.813-.577,2.289,2.289,0,0,1-.882-1.772Zm6.785.111A1.333,1.333,0,0,0,88.33-.82a1.492,1.492,0,0,0,.727.176,1.633,1.633,0,0,0,1.289-.63A5.183,5.183,0,0,0,91.1-3.832a1.954,1.954,0,0,1-.87.782,2.767,2.767,0,0,1-1.116.226A2.5,2.5,0,0,1,87.2-3.58a2.736,2.736,0,0,1-.706-1.945,3.114,3.114,0,0,1,.7-2.01A2.482,2.482,0,0,1,89.244-8.4,2.529,2.529,0,0,1,91.775-6.75a5.825,5.825,0,0,1,.387,2.273,7.491,7.491,0,0,1-.463,2.73A2.678,2.678,0,0,1,89.1.234,2.519,2.519,0,0,1,87.229-.41a2.2,2.2,0,0,1-.639-1.617Zm1.6-1.723A1.8,1.8,0,0,0,90.4-4.163a1.75,1.75,0,0,0,.519-1.444,1.848,1.848,0,0,0-.466-1.38,1.63,1.63,0,0,0-1.187-.454,1.549,1.549,0,0,0-1.228.519,2.028,2.028,0,0,0-.454,1.386,1.987,1.987,0,0,0,.4,1.3A1.555,1.555,0,0,0,89.256-3.75Z" transform="translate(4965 1253)" fill="#fff"/><path d="M3.58-.609a1.531,1.531,0,0,0,1.383-.732,1.623,1.623,0,0,0,.2-.814A1.277,1.277,0,0,0,4.623-3.27,3.44,3.44,0,0,0,3.58-3.691ZM1.594-6.264a1.131,1.131,0,0,0,.384.908A2.229,2.229,0,0,0,3.012-4.9V-7.652a1.339,1.339,0,0,0-1.093.469A1.524,1.524,0,0,0,1.594-6.264Zm-1.055.07A2.32,2.32,0,0,1,1.192-7.8a2.39,2.39,0,0,1,1.831-.727V-9.3H3.58v.768a2.757,2.757,0,0,1,1.79.688,2.23,2.23,0,0,1,.653,1.6H5a1.743,1.743,0,0,0-.24-.768A1.347,1.347,0,0,0,3.58-7.635v2.848a6.931,6.931,0,0,1,1.846.715,1.856,1.856,0,0,1,.791,1.629A2.436,2.436,0,0,1,5.2-.229,3.79,3.79,0,0,1,3.58.252V1.389H3.023V.252A2.621,2.621,0,0,1,.709-.955a3.259,3.259,0,0,1-.334-1.6H1.412a2.877,2.877,0,0,0,.252,1.172,1.558,1.558,0,0,0,1.348.744V-3.832a3.732,3.732,0,0,1-1.869-.8A2.026,2.026,0,0,1,.539-6.193ZM7.049,0A4.894,4.894,0,0,1,7.5-1.887,3.629,3.629,0,0,1,9.018-3.346L10.143-4a5.3,5.3,0,0,0,1.061-.75,1.541,1.541,0,0,0,.48-1.113,1.554,1.554,0,0,0-.439-1.163,1.6,1.6,0,0,0-1.172-.431,1.531,1.531,0,0,0-1.5.82,2.937,2.937,0,0,0-.246,1.219H7.254a3.766,3.766,0,0,1,.4-1.787,2.537,2.537,0,0,1,2.42-1.219,2.623,2.623,0,0,1,2.106.779,2.607,2.607,0,0,1,.665,1.734,2.358,2.358,0,0,1-.709,1.723A6.941,6.941,0,0,1,10.67-3.176l-.8.445a5.2,5.2,0,0,0-.9.6A2.2,2.2,0,0,0,8.227-1h4.582V0ZM14.5-5.941V-6.75a4.3,4.3,0,0,0,1.594-.372,1.834,1.834,0,0,0,.674-1.233H17.6V0H16.471V-5.941Zm8.771-2.449a2.479,2.479,0,0,1,2.355,1.342,6,6,0,0,1,.563,2.842,6.843,6.843,0,0,1-.51,2.83A2.5,2.5,0,0,1,23.262.229a2.417,2.417,0,0,1-2.25-1.312A6.01,6.01,0,0,1,20.4-4.025a7.267,7.267,0,0,1,.369-2.455A2.526,2.526,0,0,1,23.268-8.391ZM23.256-.732a1.5,1.5,0,0,0,1.307-.727,5.26,5.26,0,0,0,.486-2.707A6.688,6.688,0,0,0,24.7-6.519a1.338,1.338,0,0,0-1.365-.923,1.427,1.427,0,0,0-1.362.876,6.049,6.049,0,0,0-.431,2.581,6.338,6.338,0,0,0,.275,2.063A1.5,1.5,0,0,0,23.256-.732Zm6.686-7.658A2.479,2.479,0,0,1,32.3-7.049a6,6,0,0,1,.563,2.842,6.843,6.843,0,0,1-.51,2.83A2.5,2.5,0,0,1,29.936.229a2.417,2.417,0,0,1-2.25-1.312,6.01,6.01,0,0,1-.615-2.941,7.267,7.267,0,0,1,.369-2.455A2.526,2.526,0,0,1,29.941-8.391ZM29.93-.732a1.5,1.5,0,0,0,1.307-.727,5.26,5.26,0,0,0,.486-2.707,6.688,6.688,0,0,0-.352-2.353,1.338,1.338,0,0,0-1.365-.923,1.427,1.427,0,0,0-1.362.876,6.049,6.049,0,0,0-.431,2.581,6.338,6.338,0,0,0,.275,2.063A1.5,1.5,0,0,0,29.93-.732Zm4.436,1.957a.739.739,0,0,0,.568-.568,1.609,1.609,0,0,0,.088-.51q0-.041,0-.073A.4.4,0,0,0,35,0h-.639V-1.277h1.254V-.094a2.564,2.564,0,0,1-.281,1.225,1.281,1.281,0,0,1-.973.65Zm5.584-9.615A2.479,2.479,0,0,1,42.3-7.049a6,6,0,0,1,.563,2.842,6.843,6.843,0,0,1-.51,2.83A2.5,2.5,0,0,1,39.943.229a2.417,2.417,0,0,1-2.25-1.312,6.01,6.01,0,0,1-.615-2.941,7.267,7.267,0,0,1,.369-2.455A2.526,2.526,0,0,1,39.949-8.391ZM39.938-.732a1.5,1.5,0,0,0,1.307-.727,5.26,5.26,0,0,0,.486-2.707,6.688,6.688,0,0,0-.352-2.353,1.338,1.338,0,0,0-1.365-.923,1.427,1.427,0,0,0-1.362.876,6.049,6.049,0,0,0-.431,2.581A6.338,6.338,0,0,0,38.5-1.922,1.5,1.5,0,0,0,39.938-.732Zm6.686-7.658a2.479,2.479,0,0,1,2.355,1.342,6,6,0,0,1,.563,2.842,6.843,6.843,0,0,1-.51,2.83A2.5,2.5,0,0,1,46.617.229a2.417,2.417,0,0,1-2.25-1.312,6.01,6.01,0,0,1-.615-2.941,7.267,7.267,0,0,1,.369-2.455A2.526,2.526,0,0,1,46.623-8.391ZM46.611-.732a1.5,1.5,0,0,0,1.307-.727A5.26,5.26,0,0,0,48.4-4.166a6.688,6.688,0,0,0-.352-2.353,1.338,1.338,0,0,0-1.365-.923,1.427,1.427,0,0,0-1.362.876,6.049,6.049,0,0,0-.431,2.581,6.338,6.338,0,0,0,.275,2.063A1.5,1.5,0,0,0,46.611-.732Z" transform="translate(5097 1078)" fill="#fff"/><g transform="translate(4998.273 1501) rotate(-90)"><line x1="6" transform="translate(5 7.727)" stroke-width="1" stroke="#fff" stroke-linecap="round" stroke-linejoin="round" fill="none"/><path d="M7.671,10.342,5,7.671,7.671,5" fill="none" stroke="#fff" stroke-linecap="round" stroke-linejoin="round" stroke-width="1"/></g><rect width="15.985" height="3.436" transform="translate(4964.009 1081.374) rotate(-135)" fill="#fff" opacity="0.5"/><path d="M11.808.809a6.182,6.182,0,0,1-.837.679,6.135,6.135,0,0,1-1.044.567,6.107,6.107,0,0,1-2.392.483,6.108,6.108,0,0,1-2.392-.483A6.141,6.141,0,0,1,4.1,1.488,6.2,6.2,0,0,1,3.435.971,1.823,1.823,0,1,0,.6,3.174l-.008.008L.6,3.19l.068.069A9.783,9.783,0,0,0,2.105,4.445a9.719,9.719,0,0,0,1.649.9,9.665,9.665,0,0,0,1.823.566,9.785,9.785,0,0,0,1.957.2,9.789,9.789,0,0,0,1.957-.2,9.645,9.645,0,0,0,1.823-.566,9.73,9.73,0,0,0,1.65-.9,9.781,9.781,0,0,0,1.324-1.074A1.823,1.823,0,1,0,11.808.809Z" transform="translate(4952 1066.96)" fill="#fff"/><path d="M5.577.2A9.656,9.656,0,0,0,2.105,1.658a9.8,9.8,0,0,0-1.094.859,1.823,1.823,0,1,0,2.1,2.923l0,0,.076-.077a6.2,6.2,0,0,1,.91-.75,6.138,6.138,0,0,1,6.872,0,6.2,6.2,0,0,1,.91.75l.092.094.041-.041a1.823,1.823,0,1,0,1.97-2.968A9.712,9.712,0,0,0,11.314.763,9.683,9.683,0,0,0,9.491.2,9.807,9.807,0,0,0,5.577.2Z" transform="translate(4952 1075.852)" fill="#fff"/><g transform="translate(5144 1167)"><circle cx="5" cy="5" r="5" transform="translate(2 2)" fill="none" stroke="#fff" stroke-linecap="round" stroke-linejoin="round" stroke-width="1"/><line y1="2" transform="translate(7 7)" stroke-width="1" stroke="#fff" stroke-linecap="round" stroke-linejoin="round" fill="none"/><line transform="translate(7 5)" stroke-width="1" stroke="#fff" stroke-linecap="round" stroke-linejoin="round" fill="none"/></g><path d="M2,0,4,3H0Z" transform="translate(5156 1075) rotate(180)" fill="#fff"/></g></svg>